<?xml version="1.0" standalone="no"?>
<!DOCTYPE svg PUBLIC "-//W3C//DTD SVG 1.1//EN"
  "http://www.w3.org/Graphics/SVG/1.1/DTD/svg11.dtd">
<svg width="15.776893854141235mm" height="15.776836395263665mm" viewBox="-2.8779184818267822 44.14208221435546 15.776893854141235 15.776836395263665" xmlns="http://www.w3.org/2000/svg" version="1.1">
	<title>svgOutput</title>
	<desc>made with tinkercad</desc>
<path d="M 10.976448059082031 48.58604049682616 L 10.978629112243652 48.59046173095702 L 11.018712043762207 48.6716957092285 L 11.255101203918457 49.15200042724608 L 11.374439239501953 49.394474029541 L 11.405135154724121 49.484924316406236 L 11.664617538452148 50.247333526611314 L 11.665677070617676 50.25266265869139 L 11.68323802947998 50.34099960327147 L 11.839871406555176 51.131713867187486 L 11.846135139465332 51.22702026367186 L 11.898975372314453 52.02999877929686 L 11.898941040039062 52.03052139282225 L 11.892711639404297 52.12536239624022 L 11.839871406555176 52.929286956787095 L 11.821250915527344 53.02295303344725 L 11.776671409606934 53.2480010986328 L 11.664617538452148 53.81366729736327 L 11.663272857666016 53.81763076782225 L 11.63392162322998 53.9041175842285 L 11.374439239501953 54.66652679443358 L 11.332175254821777 54.75218200683592 L 10.976448059082031 55.47496032714842 L 10.973015785217285 55.48009109497069 L 10.923351287841797 55.55435180664061 L 10.475153923034668 56.223346710205064 L 10.412181854248047 56.29517364501952 L 9.881893157958984 56.90095138549803 L 9.878535270690918 56.903896331787095 L 9.810118675231934 56.963920593261705 L 9.376708030700684 57.34400177001952 L 9.204344749450684 57.49515533447264 L 9.124897003173828 57.548252105712876 L 8.45495891571045 57.99550628662108 L 8.369303703308105 58.037712097167955 L 8.192000389099121 58.12520599365233 L 7.64652681350708 58.394382476806626 L 7.556075096130371 58.42507934570311 L 6.793667793273926 58.68361663818358 L 6.699999809265137 58.70229339599608 L 5.910228729248047 58.85987091064452 L 5.909496307373047 58.85992050170897 L 5.814924716949463 58.86607742309569 L 5.011000156402588 58.918918609619126 L 5.007294178009033 58.91867828369139 L 4.915696144104004 58.912712097167955 L 4.111771106719971 58.85987091064452 L 4.018046855926514 58.84119415283202 L 3.228275775909424 58.68361663818358 L 3.137824535369873 58.652919769287095 L 2.3744733333587646 58.394382476806626 L 2.371119499206543 58.39273071289061 L 2.288818120956421 58.35217666625975 L 1.5669842958450317 57.99550628662108 L 1.4875924587249756 57.94240570068358 L 0.8176551461219788 57.49515533447264 L 0.8138095736503601 57.49178314208983 L 0.7458244562149048 57.432182312011705 L 0.645268976688385 57.34400177001952 L 0.14005015790462494 56.90095138549803 L 0.07707837224006653 56.829120635986314 L 5.684397345563023e-16 56.74122619628905 L -0.4541535973548889 56.223346710205064 L -0.454692542552948 56.22253799438475 L -0.5071943402290344 56.14395141601561 L -0.9544482827186584 55.47496032714842 L -0.955315887928009 55.47320175170897 L -0.9967116117477417 55.38930511474608 L -1.3533824682235718 54.66652679443358 L -1.3534783124923706 54.66624450683592 L -1.3840783834457397 54.576076507568345 L -1.6426175832748413 53.81366729736327 L -1.66129469871521 53.72000122070311 L -1.7553566694259644 53.2480010986328 L -1.8188714981079102 52.929286956787095 L -1.8250783681869507 52.833923339843736 L -1.8779184818267822 52.02999877929686 L -1.8776615858078003 52.026054382324205 L -1.8717116117477417 51.93469619750975 L -1.8188714981079102 51.131713867187486 L -1.8001943826675415 51.03804779052733 L -1.6426175832748413 50.247333526611314 L -1.642399787902832 50.24668884277342 L -1.6119216680526733 50.156879425048814 L -1.3533824682235718 49.394474029541 L -1.3527603149414062 49.39321136474608 L -1.3111190795898438 49.30881881713866 L -1.2337336540222168 49.15200042724608 L -0.9544482827186584 48.58604049682616 L -0.9014075398445129 48.50664901733397 L -0.4541535973548889 47.837654113769524 L -0.3911818265914917 47.765823364257805 L 0 47.319751739501946 L 0.14005015790462494 47.160049438476555 L 0.2118808776140213 47.09708023071288 L 0.8176551461219788 46.565845489501946 L 0.8184645771980286 46.56530380249023 L 0.8970470428466797 46.51274871826171 L 1.5669842958450317 46.06549453735351 L 1.6526395082473755 46.02328872680663 L 2.3744733333587646 45.66661834716796 L 2.380918502807617 45.66442489624023 L 2.4649248123168945 45.63586425781249 L 3.228275775909424 45.377326965332024 L 3.322000026702881 45.35870361328124 L 4.0960001945495605 45.20427703857421 L 4.111771106719971 45.20112991333007 L 4.207075119018555 45.1949234008789 L 5.011000156402588 45.14208221435546 L 5.014705657958984 45.142322540283196 L 5.106304168701172 45.14828872680663 L 5.910228729248047 45.20112991333007 L 6.003896713256836 45.21974945068359 L 6.793667793273926 45.377326965332024 L 6.884119033813477 45.40807723999023 L 7.64652681350708 45.66661834716796 L 7.650911331176758 45.668777465820305 L 7.732182025909424 45.70882415771484 L 8.192000389099121 45.93573379516601 L 8.45495891571045 46.06549453735351 L 8.534407615661621 46.11859130859374 L 9.204344749450684 46.565845489501946 L 9.206646919250488 46.56786727905273 L 9.276119232177734 46.62881851196288 L 9.881893157958984 47.160049438476555 L 9.882840156555176 47.16112899780273 L 9.944865226745605 47.231880187988274 L 10.475153923034668 47.837654113769524 L 10.528250694274902 47.91704559326171 L 10.976448059082031 48.58604049682616 z" fill="none" stroke="rgb(255,0,0)" stroke-width="0.001mm" />
</svg>