<?xml version="1.0" standalone="no"?>
<!DOCTYPE svg PUBLIC "-//W3C//DTD SVG 1.1//EN"
  "http://www.w3.org/Graphics/SVG/1.1/DTD/svg11.dtd">
<svg width="31.73674488067627mm" height="31.868372797965996mm" viewBox="1.131627082824707 -31.999999999999993 31.73674488067627 31.868372797965996" xmlns="http://www.w3.org/2000/svg" version="1.1">
	<title>svgOutput</title>
	<desc>made with tinkercad</desc>
<path d="M 29 -30.999999999999993 L 29 -28.67200088500976 L 29 -24.999999999999993 L 28.842912673950195 -24.999999999999993 L 28.77970314025879 -24.999999999999993 L 29.03544044494629 -24.634927749633782 L 29.076763153076172 -24.57600021362304 L 29.27337646484375 -24.295623779296868 L 29.518627166748047 -23.945167541503903 L 29.87640953063965 -23.433904647827145 L 29.890878677368164 -23.402866363525387 L 30.2987003326416 -22.527999877929684 L 30.35123062133789 -22.415309906005856 L 30.971736907958984 -21.085250854492184 L 30.972408294677734 -21.0827465057373 L 31.134061813354492 -20.479999542236325 L 31.262826919555664 -19.999883651733395 L 31.642683029174805 -18.581907272338864 L 31.655773162841797 -18.431999206542965 L 31.74043846130371 -17.46249961853027 L 31.834781646728516 -16.38400077819824 L 31.868371963500977 -15.999999999999996 L 31.86826515197754 -15.998773574829098 L 31.77061653137207 -14.880592346191403 L 31.722976684570312 -14.33600044250488 L 31.642845153808594 -13.419952392578121 L 31.642683029174805 -13.41809272766113 L 31.351593017578125 -12.33272552490234 L 31.339611053466797 -12.28800010681152 L 30.971736907958984 -10.914748191833494 L 30.657201766967773 -10.239999771118162 L 30.496915817260742 -9.896153450012205 L 29.87640953063965 -8.56609535217285 L 29.61441993713379 -8.19200038909912 L 29.231822967529297 -7.645693778991697 L 28.672000885009766 -6.846052646636961 L 28.389829635620117 -6.4430055618286115 L 28.388874053955078 -6.442049980163572 L 28.090824127197266 -6.14400005340576 L 26.55699348449707 -4.610170364379882 L 25.822813034057617 -4.09600019454956 L 25.636592864990234 -3.9655838012695304 L 24.576000213623047 -3.223069667816161 L 24.43390464782715 -3.1235895156860343 L 23.41530990600586 -2.6487689018249507 L 22.527999877929688 -2.2348165512084956 L 22.1275577545166 -2.04800009727478 L 22.085250854492188 -2.028263092041015 L 20.9998836517334 -1.7371734380722041 L 20.479999542236328 -1.5979038476943965 L 19.581907272338867 -1.3573179244995113 L 18.462499618530273 -1.2595607042312618 L 18.43199920654297 -1.2568926811218257 L 17 -1.1316272020339961 L 16.9987735748291 -1.1317342519760127 L 16.384000778198242 -1.1854220628738399 L 15.880592346191406 -1.2293844223022456 L 14.418092727661133 -1.3573179244995113 L 13.332725524902344 -1.6484074592590328 L 12.288000106811523 -1.9282743930816646 L 11.914748191833496 -2.028263092041015 L 11.912534713745117 -2.0292949676513667 L 11.872407913208008 -2.04800009727478 L 10.896153450012207 -2.503083705902099 L 10.239999771118164 -2.80919599533081 L 9.567033767700195 -3.123151779174804 L 9.566095352172852 -3.1235895156860343 L 8.6456937789917 -3.768176317214965 L 8.192000389099121 -4.08580446243286 L 8.177436828613281 -4.09600019454956 L 7.443005561828613 -4.610170364379882 L 5.909176349639893 -6.14400005340576 L 5.610170364379883 -6.4430055618286115 L 4.965583801269531 -7.363407611846922 L 4.385491371154785 -8.19200038909912 L 4.123589515686035 -8.56609535217285 L 4.0960001945495605 -8.625281333923338 L 3.648768901824951 -9.584691047668455 L 3.0282630920410156 -10.914748191833494 L 2.737173318862915 -12.000115394592282 L 2.660053253173828 -12.28800010681152 L 2.3575613498687744 -13.417183876037594 L 2.3573179244995117 -13.41809272766113 L 2.2771575450897217 -14.33600044250488 L 2.2595605850219727 -14.537500381469723 L 2.131627082824707 -15.999999999999996 L 2.165161609649658 -16.38400077819824 L 2.229384422302246 -17.11940765380859 L 2.3571553230285645 -18.58004760742187 L 2.3573179244995117 -18.581907272338864 L 2.648407459259033 -19.667274475097653 L 2.8661248683929443 -20.479999542236325 L 3.0282630920410156 -21.085250854492184 L 3.5030837059020996 -22.103847503662106 L 4.0960001945495605 -23.37476539611816 L 4.115574359893799 -23.41672325134277 L 4.122255325317383 -23.431043624877926 L 4.123589515686035 -23.433904647827145 L 4.624180316925049 -24.148281097412102 L 4.769452095031738 -24.35559463500976 L 4.809685707092285 -24.41336250305175 L 4.923499584197998 -24.57600021362304 L 5.220216274261475 -24.999999999999993 L 5.139263153076172 -24.999999999999993 L 5 -24.999999999999993 L 5 -26.6240005493164 L 5 -28.67200088500976 L 5 -30.999999999999993 L 8.192000389099121 -30.999999999999993 L 14.498000144958496 -30.999999999999993 L 16.384000778198242 -30.999999999999993 L 19.503000259399414 -30.999999999999993 L 24.576000213623047 -30.999999999999993 L 29 -30.999999999999993 z" fill="none" stroke="rgb(255,0,0)" stroke-width="0.001mm" />
</svg>