<?xml version="1.0" standalone="no"?>
<!DOCTYPE svg PUBLIC "-//W3C//DTD SVG 1.1//EN"
  "http://www.w3.org/Graphics/SVG/1.1/DTD/svg11.dtd">
<svg width="165.2716178894043mm" height="64.4883871078491mm" viewBox="-22.411617279052734 -11.48838710784912 165.2716178894043 64.4883871078491" xmlns="http://www.w3.org/2000/svg" version="1.1">
	<title>svgOutput</title>
	<desc>made with tinkercad</desc>
<path d="M 141.86000061035156 41.99999999999999 L 141.86000061035156 43.00799942016601 L 141.86000061035156 45.05599975585937 L 141.86000061035156 49.15200042724608 L 141.86000061035156 51.999999999999986 L 139.26400756835938 51.999999999999986 L 138.60281372070312 51.999999999999986 L 138.5977020263672 51.999999999999986 L 138.5977020263672 51.20000076293944 L 138.5977020263672 49.15200042724608 L 138.5977020263672 47.10400009155273 L 138.5977020263672 45.05599975585937 L 138.5977020263672 43.00799942016601 L 138.5977020263672 41.99999999999999 L 138.60281372070312 41.99999999999999 L 138.71058654785156 41.99999999999999 L 139.26400756835938 41.99999999999999 L 141.86000061035156 41.99999999999999 M 71.94595336914062 3.538733959197997 L 71.94596862792969 3.5387446880340567 L 71.94629669189453 3.539122819900512 L 71.94644165039062 3.5392835140228263 L 71.94660186767578 3.5394697189331046 L 71.95808410644531 3.552534818649291 L 71.98339080810547 3.581239938735961 L 71.98583221435547 3.58400011062622 L 71.99838256835938 3.5981783866882315 L 71.99838256835938 3.59824776649475 L 71.99838256835938 3.5982580184936515 L 72.00017547607422 3.6002788543701163 L 72.43769073486328 4.09600019454956 L 73.72799682617188 5.557969570159911 L 76.05274963378906 8.19200038909912 L 79.66780090332031 12.28800010681152 L 79.76071166992188 12.393273353576657 L 79.87200164794922 12.519363403320309 L 80.14380645751953 12.827331542968746 L 80.1715087890625 12.858685493469235 L 80.19808959960938 12.888702392578121 L 80.20257568359375 12.89376068115234 L 80.20280456542969 12.894037246704098 L 80.22930145263672 12.924049377441403 L 80.2571029663086 12.955611228942868 L 80.25731658935547 12.955795288085934 L 80.30835723876953 13.013679504394528 L 80.35645294189453 13.068237304687496 L 80.40459442138672 13.122680664062496 L 80.41405487060547 13.13348007202148 L 80.41429901123047 13.133690834045407 L 80.41895294189453 13.139069557189938 L 80.41935729980469 13.13953876495361 L 80.41946411132812 13.139667510986325 L 80.41992950439453 13.14019393920898 L 80.41997528076172 13.140237808227536 L 80.44450378417969 13.16789627075195 L 80.44456481933594 13.16802883148193 L 80.48615264892578 13.215131759643551 L 80.5173568725586 13.250517845153805 L 80.55839538574219 13.297004699707028 L 80.5716323852539 13.3120002746582 L 80.58582305908203 13.328072547912594 L 80.6209487915039 13.367874145507809 L 80.62987518310547 13.377978324890133 L 80.63999938964844 13.38944053649902 L 80.64842224121094 13.3989725112915 L 80.65504455566406 13.406495094299313 L 80.65567016601562 13.40720176696777 L 80.66686248779297 13.419898986816403 L 80.67970275878906 13.43447113037109 L 80.67980194091797 13.434559822082516 L 80.6799087524414 13.434663772583004 L 80.68020629882812 13.434939384460446 L 80.68466186523438 13.439999580383297 L 80.69668579101562 13.453652381896969 L 80.69886779785156 13.456129074096676 L 80.6991195678711 13.456407546997067 L 80.69935607910156 13.45667457580566 L 80.69945526123047 13.45678615570068 L 80.70328521728516 13.464913368225094 L 80.724853515625 13.510150909423825 L 80.72860717773438 13.518101692199703 L 80.732177734375 13.525566101074215 L 80.73585510253906 13.533268928527828 L 80.73605346679688 13.533702850341793 L 80.74536895751953 13.553228378295895 L 80.75244140625 13.567999839782711 L 80.75345611572266 13.570108413696286 L 80.75450897216797 13.5723123550415 L 80.75457763671875 13.572509765624996 L 80.75605773925781 13.575687408447262 L 80.75656127929688 13.57660865783691 L 80.75662231445312 13.576806068420407 L 80.75724792480469 13.578202247619625 L 80.75788116455078 13.579515457153317 L 80.75788116455078 13.579581260681149 L 80.76055908203125 13.58513259887695 L 80.76074981689453 13.58547496795654 L 80.76080322265625 13.58557033538818 L 80.7608642578125 13.585764884948727 L 80.76091766357422 13.585927009582516 L 80.76141357421875 13.586897850036618 L 80.76204681396484 13.58813667297363 L 80.76349639892578 13.591102600097653 L 80.76356506347656 13.591350555419918 L 80.7635726928711 13.59139537811279 L 80.76361083984375 13.591521263122555 L 80.76512145996094 13.594798088073727 L 80.76517486572266 13.594876289367672 L 80.76543426513672 13.59530925750732 L 80.7656478881836 13.595679283142086 L 80.76573944091797 13.595825195312496 L 80.76577758789062 13.595947265624996 L 80.76590728759766 13.596318244934078 L 80.76592254638672 13.596358299255368 L 80.76649475097656 13.597616195678707 L 80.76680755615234 13.598213195800778 L 80.76799774169922 13.600722312927243 L 80.77349853515625 13.612313270568844 L 80.77688598632812 13.619382858276364 L 80.77693939208984 13.619457244873043 L 80.7802734375 13.626442909240719 L 80.78202056884766 13.630120277404782 L 80.78290557861328 13.631999969482418 L 80.78458404541016 13.635575294494625 L 80.79193115234375 13.651056289672848 L 80.79350280761719 13.654294013977047 L 80.79566192626953 13.658789634704586 L 80.79574584960938 13.658885955810543 L 80.7957763671875 13.658919334411618 L 80.79621887207031 13.659867286682125 L 80.80054473876953 13.668991088867184 L 80.80342864990234 13.67508220672607 L 80.80732727050781 13.68322944641113 L 80.81340789794922 13.696000099182125 L 80.81956481933594 13.708950996398922 L 80.82256317138672 13.71525955200195 L 80.82585906982422 13.722218513488766 L 80.83846282958984 13.748692512512203 L 80.84493255615234 13.762268066406246 L 80.844970703125 13.76230430603027 L 80.84500122070312 13.762331962585446 L 80.84571075439453 13.763846397399899 L 80.84595489501953 13.76437950134277 L 80.84601593017578 13.76450157165527 L 80.84645080566406 13.765333175659176 L 80.8476333618164 13.767822265624996 L 80.84819793701172 13.769075393676754 L 80.85814666748047 13.789961814880368 L 80.8743667602539 13.82400035858154 L 80.89600372314453 13.869414329528805 L 81.11827850341797 14.33600044250488 L 81.91999816894531 16.01887512207031 L 82.09394836425781 16.38400077819824 L 86.04866027832031 24.685268402099602 L 86.12939453125 24.854806900024407 L 86.14198303222656 24.88117027282714 L 86.15093231201172 24.899909973144524 L 86.16600799560547 24.93159866333007 L 86.19599151611328 24.99461364746093 L 86.20154571533203 25.006294250488274 L 86.20161437988281 25.006429672241204 L 86.20304107666016 25.015497207641594 L 86.2031021118164 25.015869140624993 L 86.21232604980469 25.076808929443352 L 86.21232604980469 25.07681465148925 L 86.21231842041016 25.077095031738274 L 86.22207641601562 25.141265869140618 L 86.22268676757812 25.145299911499016 L 86.22737121582031 25.175981521606438 L 86.23658752441406 25.23707962036132 L 87.37664794921875 32.76800155639648 L 87.38646697998047 32.832832336425774 L 87.39173126220703 32.86729431152343 L 87.39192962646484 32.868659973144524 L 87.39366912841797 32.88024520874023 L 87.39379119873047 32.88121032714843 L 87.39649963378906 32.89896011352538 L 87.39859771728516 32.912796020507805 L 87.39878845214844 32.914051055908196 L 87.39881134033203 32.91439056396484 L 87.39897918701172 32.9156150817871 L 87.41163635253906 32.9990005493164 L 81.91999816894531 32.9990005493164 L 77.8239974975586 32.9990005493164 L 73.72799682617188 32.9990005493164 L 69.63200378417969 32.9990005493164 L 65.53600311279297 32.9990005493164 L 57.34400177001953 32.9990005493164 L 49.240966796875 32.9990005493164 L 49.152000427246094 32.9990005493164 L 45.055999755859375 32.9990005493164 L 40.959999084472656 32.9990005493164 L 32.768001556396484 32.9990005493164 L 28.672000885009766 32.9990005493164 L 24.576000213623047 32.9990005493164 L 20.479999542236328 32.9990005493164 L 19 32.9990005493164 L 18.43199920654297 32.9990005493164 L 16.384000778198242 32.9990005493164 L 8.192000389099121 32.9990005493164 L 0 32.9990005493164 L -4.0960001945495605 32.9990005493164 L -8.192000389099121 32.9990005493164 L -12.288000106811523 32.9990005493164 L -14.336000442504883 32.9990005493164 L -16.384000778198242 32.9990005493164 L -17.408000946044922 32.9990005493164 L -18.43199920654297 32.9990005493164 L -19.45599937438965 32.9990005493164 L -19.968000411987305 32.9990005493164 L -20.479999542236328 32.9990005493164 L -20.736000061035156 32.9990005493164 L -20.992000579833984 32.9990005493164 L -21.411617279052734 32.9990005493164 L -21.37664794921875 32.76800155639648 L -20.201663970947266 25.00642013549804 L -14.731295585632324 13.523663520812985 L -14.699427604675293 13.456800460815426 L -5.979806900024414 3.5760085582733145 L -5.946933269500732 3.5387492179870597 L -5.946915626525879 3.5387372970581046 L -0.6429499983787537 1.1102230246251565e-16 L 1.6605764617054318e-16 -0.42896795272827126 L 5.417357444763184 -4.043358802795409 L 5.460202693939209 -4.071946144104003 L 5.460207462310791 -4.071948051452636 L 18.69439125061035 -8.838856697082518 L 18.735185623168945 -8.853548049926756 L 18.744157791137695 -8.85677909851074 L 18.744295120239258 -8.856828689575194 L 18.813365936279297 -8.864725112915037 L 18.815608978271484 -8.864977836608885 L 18.81785011291504 -8.865231513977049 L 18.82027244567871 -8.865513801574705 L 18.8243350982666 -8.865985870361326 L 18.82493782043457 -8.86604881286621 L 18.825227737426758 -8.866078376770018 L 18.82536506652832 -8.866097450256346 L 18.82585334777832 -8.86616516113281 L 18.82695960998535 -8.866280555725096 L 18.829805374145508 -8.86661911010742 L 18.830190658569336 -8.866664886474608 L 18.831623077392578 -8.86682605743408 L 18.832563400268555 -8.866939544677733 L 18.834505081176758 -8.867149353027342 L 18.8363094329834 -8.867357254028319 L 18.83675765991211 -8.867404937744139 L 18.85015869140625 -8.868942260742186 L 18.854124069213867 -8.869382858276365 L 18.87037467956543 -8.871265411376951 L 18.877521514892578 -8.872065544128416 L 32.768001556396484 -10.461834907531737 L 32.896644592285156 -10.476558685302733 L 32.999534606933594 -10.4883337020874 L 32.99986267089844 -10.488371849060057 L 32.9998893737793 -10.488374710083006 L 33 -10.48838710784912 L 33.01206970214844 -10.48702049255371 L 33.01213073730469 -10.487018585205076 L 33.01216506958008 -10.487009048461912 L 33.01221466064453 -10.486995697021483 L 33.01472854614258 -10.486714363098143 L 33.01775360107422 -10.486357688903807 L 33.02411651611328 -10.485626220703123 L 33.038108825683594 -10.484027862548826 L 33.038211822509766 -10.484004974365233 L 33.03822326660156 -10.4840030670166 L 33.03853225708008 -10.48396873474121 L 33.040496826171875 -10.483749389648436 L 33.041893005371094 -10.483583450317381 L 33.042755126953125 -10.483496665954588 L 33.04276657104492 -10.483495712280272 L 33.04276657104492 -10.483495712280272 L 33.04283142089844 -10.48347473144531 L 33.04283142089844 -10.483473777770994 L 33.04338073730469 -10.483410835266112 L 33.07574462890625 -10.479722023010252 L 33.08395767211914 -10.478772163391112 L 33.0869255065918 -10.478447914123533 L 33.08750915527344 -10.478384017944334 L 33.08967590332031 -10.478147506713865 L 33.09012222290039 -10.478085517883299 L 33.090206146240234 -10.478074073791502 L 33.0907096862793 -10.478004455566404 L 33.10346984863281 -10.476558685302733 L 33.10348892211914 -10.476558685302733 L 33.104270935058594 -10.47645854949951 L 33.108177185058594 -10.476022720336912 L 33.10934066772461 -10.475893020629881 L 33.11189270019531 -10.475607872009276 L 33.11205291748047 -10.475583076477049 L 33.11220169067383 -10.475561141967772 L 33.11272048950195 -10.47548198699951 L 33.12003707885742 -10.474656105041502 L 33.12325668334961 -10.474292755126951 L 33.123573303222656 -10.474256515502928 L 33.24334716796875 -10.460516929626463 L 33.243377685546875 -10.460545539855955 L 33.24338912963867 -10.46051502227783 L 33.2434196472168 -10.460543632507322 L 33.24370193481445 -10.4605016708374 L 33.27577209472656 -10.456830024719237 L 40.959999084472656 -9.577307701110838 L 47.254581451416016 -8.856841087341307 L 47.25469207763672 -8.856827735900877 L 47.25473403930664 -8.856822967529295 L 47.26689529418945 -8.852434158325194 L 47.27450180053711 -8.849697113037108 L 47.27851104736328 -8.848248481750487 L 47.28813934326172 -8.844774246215819 L 47.28879165649414 -8.844547271728514 L 47.289466857910156 -8.844310760498045 L 47.28992462158203 -8.844151496887205 L 47.29014205932617 -8.844075202941893 L 47.29035568237305 -8.843996047973631 L 47.29050064086914 -8.843941688537596 L 47.290870666503906 -8.843808174133299 L 47.29102325439453 -8.843750953674315 L 47.291229248046875 -8.843673706054686 L 47.2931022644043 -8.843000411987303 L 47.293277740478516 -8.842938423156737 L 47.29368209838867 -8.842797279357908 L 47.29370880126953 -8.842783927917479 L 47.29372024536133 -8.842779159545897 L 47.29378128051758 -8.842748641967772 L 47.2938117980957 -8.842734336853026 L 47.29387664794922 -8.842702865600584 L 47.293888092041016 -8.842697143554686 L 47.32603073120117 -8.831128120422362 L 47.330997467041016 -8.829339027404783 L 47.3573112487793 -8.819867134094237 L 47.403480529785156 -8.803247451782225 L 47.48556137084961 -8.77369976043701 L 47.53285598754883 -8.7566442489624 L 47.54438400268555 -8.752487182617186 L 47.54576110839844 -8.751990318298338 L 47.5457763671875 -8.75198459625244 L 47.54590606689453 -8.751942634582518 L 47.54678726196289 -8.751657485961912 L 47.54684066772461 -8.751605987548826 L 47.54684829711914 -8.751599311828612 L 47.687442779541016 -8.70095920562744 L 48.05607223510742 -8.568185806274412 L 48.434532165527344 -8.431867599487303 L 48.43455505371094 -8.431863784790037 L 48.43497085571289 -8.43177795410156 L 48.435638427734375 -8.4314489364624 L 48.43571090698242 -8.431412696838377 L 48.435794830322266 -8.431370735168455 L 48.43595886230469 -8.43128967285156 L 48.43703842163086 -8.43092346191406 L 48.43761444091797 -8.430727005004881 L 48.478946685791016 -8.415848731994627 L 48.56759262084961 -8.383935928344725 L 48.64711380004883 -8.355272293090819 L 49.152000427246094 -8.173404693603514 L 49.601844787597656 -8.011363029479979 L 57.34400177001953 -5.222665786743163 L 59.0609245300293 -4.604234695434569 L 60.47066116333008 -4.096453189849853 L 60.471920013427734 -4.09600019454956 L 60.488487243652344 -4.0900325775146475 L 60.53878402709961 -4.07191514968872 L 60.543827056884766 -4.068626880645751 L 60.54417037963867 -4.068403720855712 L 60.5445671081543 -4.068135261535644 L 60.554019927978516 -4.061754226684569 L 60.554386138916016 -4.061596870422362 L 60.559844970703125 -4.05777883529663 L 60.56003952026367 -4.05777883529663 L 60.56013107299805 -4.057795524597167 L 60.5678825378418 -4.052645206451415 L 60.57554244995117 -4.0474886894226065 L 60.607051849365234 -4.026253223419189 L 60.60737228393555 -4.0262484550476065 L 60.77610778808594 -3.9136333465576163 L 60.78032684326172 -3.9108171463012686 L 60.78791427612305 -3.9057514667510977 L 60.93798065185547 -3.8055570125579825 L 60.93892288208008 -3.8049705028533927 L 60.94148635864258 -3.803375244140624 L 60.94773864746094 -3.799266576766967 L 61.439998626708984 -3.4708352088928214 L 65.53600311279297 -0.7380368709564207 L 66.6421890258789 1.1102230246251565e-16 L 69.63200378417969 1.99476146697998 L 69.7117919921875 2.04800009727478 L 70.49649047851562 2.5715379714965816 L 70.61308288574219 2.649434328079223 L 70.6386947631836 2.666452884674072 L 70.63959503173828 2.667115211486816 L 70.65599822998047 2.6781022548675533 L 70.66128540039062 2.681643962860107 L 70.66144561767578 2.6817479133605953 L 70.66149139404297 2.681778192520141 L 70.67029571533203 2.68761396408081 L 70.6816635131836 2.695229053497314 L 70.82514953613281 2.790908336639404 L 70.82881927490234 2.793355226516723 L 70.8326187133789 2.795936584472656 L 70.83324432373047 2.7962105274200435 L 70.83576965332031 2.798080444335937 L 70.84345245361328 2.803275108337402 L 70.86257934570312 2.8159999847412105 L 70.88984680175781 2.8341343402862544 L 70.91200256347656 2.84893250465393 L 71.02515411376953 2.924510240554809 L 71.0274658203125 2.9259755611419673 L 71.02798461914062 2.9263074398040767 L 71.03207397460938 2.928899526596069 L 71.05098724365234 2.941648960113525 L 71.05257415771484 2.9427139759063716 L 71.05870056152344 2.94684362411499 L 71.06304168701172 2.9497797489166255 L 71.0634765625 2.9500660896301265 L 71.06979370117188 2.9542005062103267 L 71.09028625488281 2.9679143428802486 L 71.092529296875 2.969382524490356 L 71.09257507324219 2.969382524490356 L 71.09257507324219 2.969382524490356 L 71.09266662597656 2.969382524490356 L 71.09648895263672 2.971992492675781 L 71.0965347290039 2.9720242023468013 L 71.09892272949219 2.9736561775207515 L 71.09928894042969 2.973857164382934 L 71.09971618652344 2.974142789840698 L 71.10130310058594 2.9752030372619624 L 71.10753631591797 2.9794638156890865 L 71.10888671875 2.9803087711334224 L 71.10903930664062 2.9804098606109615 L 71.11389923095703 2.983610391616821 L 71.1141128540039 2.983805418014526 L 71.12784576416016 2.9930088520050044 L 71.16799926757812 3.0197322368621817 L 71.17890167236328 3.026986598968505 L 71.1839599609375 3.0303068161010733 L 71.24635314941406 3.07200002670288 L 71.24857330322266 3.0734868049621573 L 71.25120544433594 3.0752222537994376 L 71.26477813720703 3.0843751430511466 L 71.29229736328125 3.1026592254638663 L 71.314697265625 3.117539167404174 L 71.314697265625 3.11765956878662 L 71.32793426513672 3.1264381408691397 L 71.37250518798828 3.1562201976776114 L 71.385986328125 3.1652393341064444 L 71.41083526611328 3.181696653366088 L 71.42953491210938 3.1940860748291007 L 71.47793579101562 3.2264225482940665 L 71.47793579101562 3.226482391357421 L 71.47793579101562 3.226528882980346 L 71.47793579101562 3.2265381813049308 L 71.47828674316406 3.226761579513549 L 71.47948455810547 3.227531909942626 L 71.48275756835938 3.2297487258911124 L 71.4835433959961 3.23028540611267 L 71.48465728759766 3.2310607433319083 L 71.48522186279297 3.231456518173217 L 71.48573303222656 3.2317769527435294 L 71.48667907714844 3.232372283935546 L 71.4898681640625 3.234377145767211 L 71.48970031738281 3.234388351440429 L 71.48966217041016 3.2343904972076407 L 71.49794006347656 3.239893913269042 L 71.51988220214844 3.254554271697997 L 71.54961395263672 3.2742855548858634 L 71.55964660644531 3.2810299396514884 L 71.57703399658203 3.292616605758666 L 71.63101196289062 3.3287456035614005 L 71.63912963867188 3.33402132987976 L 71.68000030517578 3.3612914085388175 L 71.69803619384766 3.3733270168304434 L 71.73746490478516 3.399681568145751 L 71.80686950683594 3.446044445037841 L 71.88461303710938 3.4978172779083243 L 71.89983367919922 3.508006572723388 L 71.94160461425781 3.535836696624755 L 71.94595336914062 3.538733959197997 M 130.70932006835938 41.99999999999999 L 130.70932006835938 43.00799942016601 L 130.70932006835938 45.05599975585937 L 130.70932006835938 47.10400009155273 L 130.70932006835938 49.15200042724608 L 130.70932006835938 51.20000076293944 L 130.70932006835938 51.999999999999986 L 129.0240020751953 51.999999999999986 L 127.43373107910156 51.999999999999986 L 127.43373107910156 51.20000076293944 L 127.43373107910156 49.15200042724608 L 127.43373107910156 47.10400009155273 L 127.43373107910156 45.05599975585937 L 127.43373107910156 43.00799942016601 L 127.43373107910156 41.99999999999999 L 129.0240020751953 41.99999999999999 L 130.70932006835938 41.99999999999999 M 49.240966796875 42.99999999999999 L 49.152000427246094 42.99999999999999 L 46.881202697753906 42.99999999999999 L 46.881202697753906 40.99999999999999 L 46.881202697753906 40.95999908447265 L 46.881202697753906 36.86399841308593 L 46.881202697753906 32.99999999999999 L 49.152000427246094 32.99999999999999 L 49.240966796875 32.99999999999999 L 49.240966796875 40.95999908447265 L 49.240966796875 42.99999999999999 M 46 32.99999999999999 L 46 36.86399841308593 L 46 40.95999908447265 L 46 40.99999999999999 L 45.055999755859375 40.99999999999999 L 40.959999084472656 40.99999999999999 L 32.768001556396484 40.99999999999999 L 24.576000213623047 40.99999999999999 L 19 40.99999999999999 L 19 40.95999908447265 L 19 36.86399841308593 L 19 34.81600189208984 L 19 32.99999999999999 L 20.479999542236328 32.99999999999999 L 24.576000213623047 32.99999999999999 L 28.672000885009766 32.99999999999999 L 32.768001556396484 32.99999999999999 L 40.959999084472656 32.99999999999999 L 45.055999755859375 32.99999999999999 L 46 32.99999999999999 z" fill="none" stroke="rgb(255,0,0)" stroke-width="0.001mm" />
</svg>