<?xml version="1.0" standalone="no"?>
<!DOCTYPE svg PUBLIC "-//W3C//DTD SVG 1.1//EN"
  "http://www.w3.org/Graphics/SVG/1.1/DTD/svg11.dtd">
<svg width="21.358790397644043mm" height="21.35778856277465mm" viewBox="-24.24189567565918 -25.928894042968743 21.358790397644043 21.35778856277465" xmlns="http://www.w3.org/2000/svg" version="1.1">
	<title>svgOutput</title>
	<desc>made with tinkercad</desc>
<path d="M -4.030421257019043 -16.930473327636715 L -3.9825191497802734 -16.38400077819824 L -3.898894786834717 -15.430000305175778 L -3.8831052780151367 -15.249999999999996 L -3.883111000061035 -15.24993515014648 L -4.014631748199463 -13.749526023864743 L -4.030421257019043 -13.569526672363278 L -4.0960001945495605 -13.324808120727536 L -4.373841762542725 -12.28800010681152 L -4.420526504516602 -12.113789558410641 L -4.467263221740723 -11.939263343811033 L -4.467339515686035 -11.939099311828612 L -4.781884670257568 -11.263999938964842 L -5.103421211242676 -10.57389450073242 L -5.179841995239258 -10.410105705261229 L -5.299002170562744 -10.239999771118162 L -6.044157981872559 -9.176262855529783 L -6.144000053405762 -9.033602714538572 L -6.1477370262146 -9.028263092041014 L -6.148057460784912 -9.027942657470701 L -6.9847025871276855 -8.19200038909912 L -7.2133684158325195 -7.963526248931883 L -7.341157913208008 -7.835736751556395 L -7.341516971588135 -7.8354849815368635 L -8.192000389099121 -7.239715576171873 L -8.294376373291016 -7.16800022125244 L -8.574999809265137 -6.971421241760252 L -8.722999572753906 -6.867736816406248 L -8.723038673400879 -6.8677186965942365 L -10.08836841583252 -6.230684280395506 L -10.239999771118164 -6.160033226013182 L -10.252158164978027 -6.154368400573729 L -10.290825843811035 -6.14400005340576 L -11.706999778747559 -5.764263153076171 L -11.881525993347168 -5.71752643585205 L -12.288000106811523 -5.682159900665282 L -13.382894515991211 -5.586894512176513 L -13.562999725341797 -5.571105480194091 L -13.563682556152344 -5.571164608001708 L -14.336000442504883 -5.6384029388427725 L -15.06347370147705 -5.70173692703247 L -15.243474006652832 -5.71752643585205 L -16.384000778198242 -6.023350238800047 L -16.69831657409668 -6.107631683349608 L -16.834123611450195 -6.14400005340576 L -16.87284278869629 -6.154368400573729 L -16.873149871826172 -6.154511928558348 L -18.238210678100586 -6.791420936584471 L -18.402000427246094 -6.867736816406248 L -18.402448654174805 -6.868051052093504 L -18.43199920654297 -6.888751983642576 L -19.635841369628906 -7.732052803039549 L -19.783842086791992 -7.835736751556395 L -20.140403747558594 -8.19200038909912 L -20.479999542236328 -8.531310081481932 L -20.84947395324707 -8.900473594665526 L -20.977262496948242 -9.028263092041014 L -21.826093673706055 -10.239999771118162 L -21.84157943725586 -10.262104988098143 L -21.945158004760742 -10.410105705261229 L -22.343008041381836 -11.263999938964842 L -22.527999877929688 -11.661043167114256 L -22.581315994262695 -11.775473594665526 L -22.657737731933594 -11.939263343811033 L -22.657882690429688 -11.939806938171385 L -22.751190185546875 -12.28800010681152 L -23.047842025756836 -13.395000457763668 L -23.094579696655273 -13.569526672363278 L -23.161766052246094 -14.33600044250488 L -23.226104736328125 -15.069999694824215 L -23.24189567565918 -15.249999999999996 L -23.24188995361328 -15.250064849853512 L -23.142492294311523 -16.38400077819824 L -23.110368728637695 -16.750473022460934 L -23.094579696655273 -16.930473327636715 L -22.7044734954834 -18.38621139526367 L -22.692211151123047 -18.431999206542965 L -22.657737731933594 -18.560737609863278 L -22.65766143798828 -18.560899734497067 L -22.527999877929688 -18.83918762207031 L -22.240612030029297 -19.455999374389645 L -22.02157974243164 -19.926105499267575 L -21.945158004760742 -20.089895248413082 L -21.671886444091797 -20.479999542236325 L -21.080842971801758 -21.323736190795895 L -20.977262496948242 -21.47173690795898 L -20.97694206237793 -21.472057342529293 L -20.479999542236328 -21.96858215332031 L -19.92011260986328 -22.527999877929684 L -19.911630630493164 -22.53647422790527 L -19.783842086791992 -22.66426277160644 L -19.783483505249023 -22.664514541625973 L -18.549999237060547 -23.52857971191406 L -18.43199920654297 -23.611246109008786 L -18.402000427246094 -23.632263183593746 L -18.401960372924805 -23.63228034973144 L -17.036630630493164 -24.269315719604485 L -16.87284278869629 -24.345630645751946 L -16.384000778198242 -24.476711273193352 L -16.013715744018555 -24.57600021362304 L -15.418000221252441 -24.73573684692382 L -15.243474006652832 -24.78247451782226 L -13.743000030517578 -24.91310501098632 L -13.562999725341797 -24.928894042968743 L -13.562318801879883 -24.928834915161126 L -12.288000106811523 -24.817958831787102 L -12.061631202697754 -24.79826354980468 L -11.881525993347168 -24.78247451782226 L -11.111512184143066 -24.57600021362304 L -10.426684379577637 -24.392368316650384 L -10.252158164978027 -24.345630645751946 L -10.251850128173828 -24.345487594604485 L -10.239999771118164 -24.33995819091796 L -8.886789321899414 -23.708578109741207 L -8.722999572753906 -23.632263183593746 L -8.722551345825195 -23.631948471069332 L -8.608421325683594 -23.552000045776364 L -8.192000389099121 -23.260293960571286 L -7.489157676696777 -22.767948150634762 L -7.341157913208008 -22.66426277160644 L -7.204780101776123 -22.527999877929684 L -6.275526523590088 -21.599525451660153 L -6.179999828338623 -21.503999710083004 L -6.1477370262146 -21.47173690795898 L -6.144000053405762 -21.466402053833004 L -5.453017711639404 -20.479999542236325 L -5.283421039581299 -20.237894058227536 L -5.179841995239258 -20.089895248413082 L -4.884495258331299 -19.455999374389645 L -4.543684005737305 -18.724525451660153 L -4.467263221740723 -18.560737609863278 L -4.4671173095703125 -18.560194015502926 L -4.432764530181885 -18.431999206542965 L -4.158355236053467 -17.40800094604492 L -4.0960001945495605 -17.175312042236325 L -4.077157974243164 -17.104999542236325 L -4.030421257019043 -16.930473327636715 z" fill="none" stroke="rgb(255,0,0)" stroke-width="0.001mm" />
</svg>