<?xml version="1.0" standalone="no"?>
<!DOCTYPE svg PUBLIC "-//W3C//DTD SVG 1.1//EN"
  "http://www.w3.org/Graphics/SVG/1.1/DTD/svg11.dtd">
<svg width="194.02037048339844mm" height="114.0662040710449mm" viewBox="-95.26737213134766 -63.164001464843736 194.02037048339844 114.0662040710449" xmlns="http://www.w3.org/2000/svg" version="1.1">
	<title>svgOutput</title>
	<desc>made with tinkercad</desc>
<path d="M 97.75299835205078 -25.20800018310546 L 96.36748504638672 -24.63411903381347 L 94.46600341796875 -23.84652519226074 L 94.20800018310547 -23.73966026306152 L 94.00694274902344 -23.65638160705566 L 94.0038833618164 -23.655115127563473 L 94.20800018310547 -23.143653869628903 L 94.3782958984375 -22.716943740844723 L 94.46240997314453 -22.506172180175778 L 94.20800018310547 -22.409286499023434 L 92.16000366210938 -21.629352569580075 L 90.6768798828125 -21.064540863037106 L 90.63258361816406 -21.04766464233398 L 90.61567687988281 -21.04122734069824 L 90.60525512695312 -21.037256240844723 L 90.59680938720703 -21.0340404510498 L 90.58837127685547 -21.030830383300778 L 90.57794952392578 -21.026855468749996 L 90.56108856201172 -21.020425796508786 L 90.51700592041016 -21.003625869750973 L 90.11199951171875 -20.849277496337887 L 89.14302825927734 -20.479999542236325 L 88.3701400756836 -20.185449600219723 L 86.73063659667969 -19.560632705688473 L 86.71536254882812 -19.598379135131832 L 86.35899353027344 -20.479999542236325 L 86.35601806640625 -20.48736763000488 L 86.33822631835938 -20.479999542236325 L 85.96600341796875 -20.32582283020019 L 84.35649108886719 -19.659164428710934 L 75.95744323730469 -16.18027877807617 L 71.42256164550781 -14.301930427551266 L 63.02351379394531 -10.823043823242186 L 62.49800109863281 -10.605376243591307 L 62.02931594848633 -10.41124629974365 L 62.49696731567383 -9.255860328674315 L 62.49702072143555 -9.255722045898436 L 62.49728012084961 -9.255085945129393 L 62.497711181640625 -9.254023551940916 L 62.497711181640625 -9.254023551940916 L 61.516998291015625 -8.880558013916014 L 60.80389404296875 -8.60900020599365 L 60.75658416748047 -8.59098434448242 L 60.81399917602539 -8.448949813842772 L 60.91635513305664 -8.19200038909912 L 61.439998626708984 -6.877455711364744 L 61.51340866088867 -6.693172454833983 L 61.439998626708984 -6.665209293365477 L 60.64114761352539 -6.360906600952147 L 60.07172775268555 -6.14400005340576 L 57.72885513305664 -5.251540184020995 L 57.7196159362793 -5.248018264770507 L 57.6845703125 -5.234664440155028 L 57.667842864990234 -5.2282977104187 L 57.66767883300781 -5.228235244750976 L 57.66756057739258 -5.228190422058105 L 57.65724563598633 -5.224256038665771 L 57.64948654174805 -5.221297740936278 L 57.64881134033203 -5.221040725708007 L 57.64037322998047 -5.217829227447509 L 57.62995147705078 -5.213863849639892 L 57.62516784667969 -5.212040424346923 L 57.61308670043945 -5.207437515258788 L 57.569007873535156 -5.190648078918456 L 57.34400177001953 -5.1049556732177725 L 54.69473648071289 -4.09600019454956 L 53.78263854980469 -3.7486321926116934 L 53.641963958740234 -4.09600019454956 L 53.24800109863281 -5.068818569183349 L 53.1692008972168 -5.263400077819823 L 53.03765869140625 -5.593010425567626 L 53.021549224853516 -5.63337755203247 L 53.01779556274414 -5.642786502838134 L 53.01777648925781 -5.642830371856689 L 53.01777648925781 -5.64283275604248 L 53.24800109863281 -5.730571269989013 L 54.33282470703125 -6.14400005340576 L 54.768470764160156 -6.31002616882324 L 56.8013916015625 -7.084776401519774 L 56.836734771728516 -7.0982460975646955 L 56.85560989379883 -7.10543918609619 L 54.774784088134766 -6.3126416206359846 L 54.332157135009766 -6.14400005340576 L 53.24800109863281 -5.730934619903564 L 53.016998291015625 -5.64292287826538 L 51.3608512878418 -5.011927604675292 L 51.27687072753906 -4.979931354522704 L 51.27687072753906 -4.979932308197021 L 51.27659606933594 -4.980626583099364 L 50.94205093383789 -5.81890058517456 L 50.9413948059082 -5.818629264831542 L 50.935672760009766 -5.816258907318114 L 50.51499938964844 -5.642016887664794 L 49.71099853515625 -5.309000015258788 L 49.375492095947266 -6.118999958038328 L 34.45500183105469 -42.14087295532226 L 34.40399932861328 -42.26399993896484 L 34.45500183105469 -42.28512573242187 L 35.70675277709961 -42.80362701416015 L 35.73595428466797 -42.815723419189446 L 35.77231979370117 -42.8307876586914 L 35.7724723815918 -42.83084869384765 L 35.40576934814453 -43.75021743774413 L 35.4048957824707 -43.75239944458007 L 35.40485763549805 -43.75249862670898 L 35.40480422973633 -43.75263595581054 L 35.40473937988281 -43.75279998779296 L 35.495182037353516 -43.78725814819335 L 36.36899948120117 -44.12018203735351 L 37.05355453491211 -44.38100051879882 L 38.825199127197266 -45.05599975585937 L 40.22104263305664 -45.587818145751946 L 40.3820915222168 -45.649177551269524 L 40.528202056884766 -45.704849243164055 L 40.59736251831055 -45.73119735717773 L 40.664920806884766 -45.75695037841796 L 40.73148727416992 -45.78232192993163 L 40.744293212890625 -45.78720474243163 L 40.74594497680664 -45.78783416748046 L 40.81723403930664 -45.815010070800774 L 40.86522674560547 -45.83329010009765 L 40.87229537963867 -45.835979461669915 L 40.86886215209961 -45.83467483520507 L 40.83949279785156 -45.823493957519524 L 40.8336067199707 -45.82125091552734 L 40.817283630371094 -45.8150405883789 L 40.73980712890625 -45.78551483154296 L 40.597354888916016 -45.73123168945312 L 40.423492431640625 -45.66499710083007 L 38.8248291015625 -45.05599975585937 L 37.14659881591797 -44.41669082641601 L 37.12786865234375 -44.46362304687499 L 36.89146041870117 -45.05599975585937 L 36.86399841308594 -45.124805450439446 L 36.38948059082031 -46.31382751464843 L 36.38948059082031 -46.31382751464843 L 36.86399841308594 -46.49459075927734 L 38.46373748779297 -47.10400009155273 L 39.74129104614258 -47.5906753540039 L 40.013275146484375 -47.69432067871093 L 40.11705780029297 -47.73387908935546 L 40.13173294067383 -47.73946380615234 L 40.18118667602539 -47.758281707763665 L 40.233009338378906 -47.7780418395996 L 40.284873962402344 -47.79778289794921 L 40.34894561767578 -47.822212219238274 L 40.452537536621094 -47.861701965332024 L 40.723270416259766 -47.96487808227538 L 40.959999084472656 -48.05509185791014 L 43.04192352294922 -48.84848022460936 L 43.838382720947266 -49.15200042724608 L 44.078125 -49.2433624267578 L 44.07814025878906 -49.243366241455064 L 44.115116119384766 -49.15200042724608 L 44.176536560058594 -49.000217437744126 L 44.566410064697266 -48.03699874877928 L 44.84457015991211 -47.34977722167968 L 44.84464645385742 -47.349590301513665 L 44.84465789794922 -47.349563598632805 L 44.84469223022461 -47.34947967529296 L 44.84470748901367 -47.349441528320305 L 44.86899948120117 -47.35869598388671 L 45.055999755859375 -47.42994308471679 L 46.58608627319336 -48.01288986206053 L 46.8297119140625 -47.4109878540039 L 47.37099838256836 -47.635200500488274 L 47.715972900390625 -47.77809524536132 L 56.11495590209961 -51.257133483886705 L 60.65061569213867 -53.135898590087876 L 68.49500274658203 -56.38520431518553 L 68.5881118774414 -56.42377471923827 L 68.49568176269531 -56.652004241943345 L 68.49536895751953 -56.65278244018553 L 68.49529266357422 -56.65297698974608 L 68.96044158935547 -56.83019638061522 L 69.47599792480469 -57.02661895751952 L 70.19093322753906 -57.29899978637694 L 70.30904388427734 -57.34400177001952 L 72.6144790649414 -58.222343444824205 L 73.72799682617188 -58.64658737182616 L 74.0920639038086 -58.78528976440428 L 74.09822845458984 -58.78763961791991 L 74.09983825683594 -58.78825378417967 L 74.0998764038086 -58.788269042968736 L 74.1005859375 -58.78853607177733 L 74.09984588623047 -58.78825378417967 L 74.09205627441406 -58.78528976440428 L 73.93696594238281 -58.72621154785155 L 73.72799682617188 -58.64661026000975 L 72.61444091796875 -58.22242736816405 L 70.30840301513672 -57.34400177001952 L 70.23743438720703 -57.31696701049803 L 70.22649383544922 -57.34400177001952 L 70.17992401123047 -57.4590492248535 L 69.63200378417969 -58.832729339599595 L 69.4795913696289 -59.21482849121092 L 69.63200378417969 -59.27288436889647 L 69.9447021484375 -59.39199829101561 L 71.83216094970703 -60.110980987548814 L 73.16252899169922 -60.6177520751953 L 73.26414489746094 -60.656459808349595 L 73.30842590332031 -60.67333602905272 L 73.3253173828125 -60.6797637939453 L 73.33575439453125 -60.683742523193345 L 73.34419250488281 -60.68695831298827 L 73.34599304199219 -60.687641143798814 L 73.35262298583984 -60.69017028808592 L 73.36305236816406 -60.69413757324217 L 73.37991333007812 -60.700561523437486 L 73.42399597167969 -60.71735382080077 L 73.72799682617188 -60.833129882812486 L 75.32148742675781 -61.43999862670897 L 77.21035766601562 -62.159366607666 L 77.21087646484375 -62.15810394287108 L 77.5016860961914 -61.43999862670897 L 77.58940124511719 -61.223407745361314 L 77.82379913330078 -60.64459991455077 L 77.8239974975586 -60.64410018920897 L 77.95915222167969 -60.30545043945311 L 77.95915222167969 -60.305454254150376 L 77.96086120605469 -60.30615997314452 L 77.97599792480469 -60.312431335449205 L 79.52726745605469 -60.95500183105467 L 80.47799682617188 -61.34881210327147 L 81.0596923828125 -61.58976364135741 L 82.44599914550781 -62.164001464843736 L 97.75299835205078 -25.20800018310546 M 56.89018249511719 -7.118612289428709 L 56.888633728027344 -7.118021965026854 L 56.888343811035156 -7.117912769317625 L 56.88685607910156 -7.1173453330993635 L 56.88610076904297 -7.117056846618651 L 56.88620376586914 -7.117096424102781 L 56.88652420043945 -7.117217540740965 L 56.8865966796875 -7.117245197296141 L 56.88685607910156 -7.117344379425047 L 56.888343811035156 -7.117912292480467 L 56.89018630981445 -7.118612289428709 L 56.890586853027344 -7.118764877319334 L 56.893157958984375 -7.1197452545166 L 56.90093994140625 -7.12270927429199 L 57.02033233642578 -7.168177127838133 L 56.900936126708984 -7.122709751129149 L 56.893497467041016 -7.119875431060789 L 56.893157958984375 -7.119745731353758 L 56.89018249511719 -7.118612289428709 M 41.01924514770508 -45.89197921752929 L 40.994964599609375 -45.88273620605468 L 40.959999084472656 -45.86941528320312 L 40.95302200317383 -45.86675643920898 L 40.92300796508789 -45.85530471801757 L 40.91006851196289 -45.85036849975585 L 40.95304489135742 -45.86673355102538 L 40.959999084472656 -45.86938858032226 L 40.99497604370117 -45.88272857666015 L 41.020599365234375 -45.89249420166015 L 41.01924514770508 -45.89197921752929 M 74.1064682006836 -58.79077911376952 L 74.10640716552734 -58.79075622558592 L 74.10614013671875 -58.79065704345702 L 74.10465240478516 -58.79008865356444 L 74.1043701171875 -58.789978027343736 L 74.10367584228516 -58.78971481323241 L 74.10465240478516 -58.79008865356444 L 74.10614013671875 -58.79065322875975 L 74.10702514648438 -58.79099273681639 L 74.1067886352539 -58.79090118408202 L 74.1064682006836 -58.79077911376952 M 27.602638244628906 4.931367874145507 L 27.601909637451172 4.9295687675476065 L 27.227338790893555 4.004149436950683 L 26.836999893188477 4.1658358573913565 L 25.228212356567383 4.832229137420653 L 16.829572677612305 8.311120986938475 L 12.294343948364258 10.189707756042479 L 3.8953583240509033 13.668743133544918 L 3.369999885559082 13.886357307434078 L 2.901360511779785 14.08047771453857 L 3.3697102069854736 15.236976623535153 L 2.3889999389648438 15.610617637634274 L 1.674066185951233 15.883000373840328 L 0.7298740744590759 16.242727279663082 L 0 16.52080154418945 L -2.2270634174346924 17.369289398193356 L -2.2276949882507324 17.369531631469723 L -2.234841823577881 17.372253417968746 L -2.2351536750793457 17.372373580932614 L -2.235060453414917 17.37233734130859 L -2.2348430156707764 17.37225532531738 L -2.227059841156006 17.36929130554199 L -2.0719683170318604 17.310213088989254 L 0 16.520946502685543 L 0.729942798614502 16.242893218994137 L 1.6275668144226074 15.90096569061279 L 1.6830846071243286 16.038059234619137 L 1.685075044631958 16.042974472045895 L 2.3854048252105713 17.797842025756832 L 2.385408639907837 17.797851562499996 L 2.385070562362671 17.797979354858395 L 1.5119407176971436 18.130802154541012 L 0 18.707130432128903 L -1.399143934249878 19.24045944213867 L -1.4254860877990723 19.25049018859863 L -1.4374737739562988 19.255056381225582 L -1.4434294700622559 19.257324218749996 L -1.4603201150894165 19.263765335083004 L -1.462893009185791 19.264743804931637 L -1.4650334119796753 19.265558242797848 L -1.4707554578781128 19.26773643493652 L -1.4791947603225708 19.27095222473144 L -1.4876253604888916 19.274169921874996 L -1.496878743171692 19.27769088745117 L -1.4980487823486328 19.278137207031246 L -1.514912724494934 19.28456306457519 L -1.5589935779571533 19.301351547241207 L -4.0960001945495605 20.267555236816403 L -5.345361232757568 20.743368148803707 L -5.958799839019775 19.22780036926269 L -6.1096649169921875 18.849573135375973 L -6.109961032867432 18.84883117675781 L -6.110012531280518 18.848701477050778 L -6.110013961791992 18.848697662353512 L -6.111000061035156 18.849073410034176 L -7.687689304351807 19.449794769287106 L -7.851128101348877 19.512063980102536 L -7.851169586181641 19.511960983276364 L -7.851498603820801 19.51113700866699 L -8.18580436706543 18.673013687133786 L -8.192000389099121 18.67557907104492 L -8.61299991607666 18.849966049194332 L -9.416999816894531 19.18300056457519 L -16.254371643066406 2.675843000411987 L -25.954849243164062 6.693937778472899 L -25.954999923706055 6.693999767303465 L -27.486000061035156 2.9979999065399165 L -27.485742568969727 2.997893095016479 L -17.78516387939453 -1.0198804140090938 L -24.724000930786133 -17.771999359130856 L -23.739999771118164 -18.17960166931152 L -23.391881942749023 -18.323802947998043 L -23.355398178100586 -18.338914871215817 L -23.723318099975586 -19.260824203491207 L -23.723337173461914 -19.26087379455566 L -23.723018646240234 -19.26099586486816 L -23.71388816833496 -19.26447486877441 L -22.760000228881836 -19.627906799316403 L -22.074718475341797 -19.88899993896484 L -20.479999542236328 -20.496589660644528 L -18.695934295654297 -21.176322937011715 L -18.697187423706055 -21.17584419250488 L -20.479999542236328 -20.49687004089355 L -21.982402801513672 -19.924690246582028 L -21.98241424560547 -19.924722671508786 L -22.067243576049805 -20.137390136718746 L -22.73949432373047 -21.821897506713864 L -22.739519119262695 -21.82196235656738 L -22.739219665527344 -21.822076797485348 L -20.479999542236328 -22.683071136474606 L -19.386842727661133 -23.099676132202145 L -19.186941146850586 -23.17578315734863 L -19.1608829498291 -23.185703277587887 L -19.114795684814453 -23.203250885009762 L -19.010944366455078 -23.24282646179199 L -18.963882446289062 -23.26078414916992 L -18.948627471923828 -23.266605377197262 L -18.946857452392578 -23.267280578613278 L -18.9459228515625 -23.26763534545898 L -18.938236236572266 -23.270559310913082 L -18.914155960083008 -23.27971267700195 L -18.901166915893555 -23.284652709960934 L -18.894989013671875 -23.287000656127926 L -18.84312629699707 -23.306783676147457 L -18.779052734375 -23.331161499023434 L -18.75847053527832 -23.33900451660156 L -18.675460815429688 -23.370630264282223 L -18.40473175048828 -23.4737434387207 L -16.384000778198242 -24.24329185485839 L -16.08686065673828 -24.35645103454589 L -15.049860954284668 -24.75136756896972 L -14.951461791992188 -24.50821685791015 L -14.284427642822266 -22.858036041259762 L -14.284128189086914 -22.85729598999023 L -14.284116744995117 -22.85726928710937 L -14.28406810760498 -22.85714721679687 L -14.260000228881836 -22.866317749023434 L -12.541913986206055 -23.52088928222656 L -12.541646957397461 -23.520229339599606 L -12.29832649230957 -22.919080734252926 L -11.756999969482422 -23.143314361572262 L -11.411910057067871 -23.286260604858395 L -3.0129499435424805 -26.7653579711914 L 1.5217115879058838 -28.64374923706054 L 9.366999626159668 -31.89349746704101 L 9.46031379699707 -31.932151794433587 L 9.370169639587402 -32.154861450195305 L 9.367289543151855 -32.161975860595696 L 9.367328643798828 -32.16199111938476 L 9.831235885620117 -32.33873748779296 L 10.347999572753906 -32.53561782836913 L 11.060309410095215 -32.80699920654296 L 11.108305931091309 -32.82528686523437 L 11.050999641418457 -32.967048645019524 L 10.351591110229492 -34.722827911376946 L 12.288000106811523 -35.46045303344726 L 12.704163551330566 -35.6189842224121 L 14.136143684387207 -36.16445922851562 L 14.1453857421875 -36.16798019409179 L 14.180429458618164 -36.18133544921874 L 14.197319984436035 -36.18777465820312 L 14.202126502990723 -36.18960189819335 L 14.207748413085938 -36.19174575805663 L 14.214889526367188 -36.194465637207024 L 14.216188430786133 -36.19495773315429 L 14.224625587463379 -36.198169708251946 L 14.235048294067383 -36.20214462280273 L 14.251913070678711 -36.20856094360351 L 14.29599380493164 -36.22535324096679 L 14.336000442504883 -36.240589141845696 L 15.972921371459961 -36.86399841308593 L 16.384000778198242 -37.020557403564446 L 18.082361221313477 -37.667366027832024 L 18.082738876342773 -37.66643524169921 L 18.46139907836914 -36.7314109802246 L 18.69580078125 -36.15259933471679 L 18.83102035522461 -35.81377410888671 L 18.832727432250977 -35.81448364257812 L 18.847999572753906 -35.820808410644524 L 20.39832878112793 -36.463001251220696 L 21.350000381469727 -36.85721206665038 L 21.931533813476562 -37.098098754882805 L 22.85772132873535 -37.48175430297851 L 23.316999435424805 -37.67200088500976 L 30.256574630737305 -20.91919136047363 L 40.88100051879883 -25.31999969482421 L 42.4119987487793 -21.624999999999996 L 31.787086486816406 -17.224386215209957 L 38.625 -0.7170000076293943 L 38.16065979003906 -0.5246602296829221 L 37.23830795288086 -0.14260265231132493 L 35.33700180053711 0.6449582576751709 L 34.877967834472656 0.8350994586944579 L 34.87504959106445 0.8363078236579894 L 34.874916076660156 0.836362600326538 L 35.24937057495117 1.7751406431198116 L 35.33340835571289 1.9858275651931758 L 32.768001556396484 2.9630570411682124 L 31.548856735229492 3.427459955215453 L 31.539613723754883 3.4309816360473624 L 31.50457000732422 3.444335460662841 L 31.487680435180664 3.450773000717162 L 31.485157012939453 3.451732635498046 L 31.477245330810547 3.4547438621520987 L 31.471445083618164 3.4569551944732657 L 31.46881103515625 3.4579594135284415 L 31.46037483215332 3.4611704349517813 L 31.449951171875 3.4651446342468253 L 31.433086395263672 3.471562385559081 L 31.389005661010742 3.4883737564086905 L 30.719999313354492 3.7433338165283194 L 29.794614791870117 4.09600019454956 L 29.24213981628418 4.3065500259399405 L 28.672000885009766 4.523831367492675 L 27.602638244628906 4.931367874145507 M -18.11415672302246 -21.397922515869137 L -18.124658584594727 -21.393926620483395 L -18.13303565979004 -21.390737533569332 L -18.143482208251953 -21.386756896972653 L -18.165096282958984 -21.37852096557617 L -18.152009963989258 -21.383502960205075 L -18.147628784179688 -21.385169982910153 L -18.13825225830078 -21.388738632202145 L -18.136260986328125 -21.389497756958004 L -18.133024215698242 -21.39072799682617 L -18.124040603637695 -21.3941535949707 L -18.10740089416504 -21.4004955291748 L -18.108755111694336 -21.39998054504394 L -18.109594345092773 -21.39966011047363 L -18.11415672302246 -21.397922515869137 M 14.99226188659668 -34.3050308227539 L 15.010740280151367 -34.31206893920898 L 16.384000778198242 -34.835037231445305 L 17.428462982177734 -35.232795715332024 L 17.42995834350586 -35.233413696289055 L 17.43000602722168 -35.23343276977538 L 16.384000778198242 -34.83506774902343 L 14.998172760009766 -34.30728530883788 L 14.992263793945312 -34.305034637451165 L 14.990062713623047 -34.30419540405273 L 14.98654556274414 -34.30285644531249 L 14.984453201293945 -34.30205917358398 L 14.984416007995605 -34.302043914794915 L 14.9835844039917 -34.30172729492187 L 14.983306884765625 -34.30162048339843 L 14.984169960021973 -34.301948547363274 L 14.984453201293945 -34.30205917358398 L 14.984528541564941 -34.30208587646484 L 14.987024307250977 -34.30303573608398 L 14.99226188659668 -34.3050308227539 M -24.39099884033203 24.56928634643554 L -24.39031219482422 24.57098770141601 L -24.576000213623047 24.642261505126946 L -25.538000106811523 25.011522293090813 L -26.271310806274414 25.292999267578118 L -26.297449111938477 25.303033828735344 L -26.240074157714844 25.445049285888665 L -25.542020797729492 27.201004028320305 L -25.542016983032227 27.201017379760735 L -27.908187866210938 28.109294891357415 L -28.672000885009766 28.402492523193352 L -29.37409782409668 28.67200088500976 L -29.563308715820312 28.744630813598626 L -29.687509536743164 28.792304992675774 L -29.735986709594727 28.810914993286126 L -29.736024856567383 28.810930252075188 L -29.754520416259766 28.81802558898925 L -29.76594352722168 28.82241249084472 L -29.775188446044922 28.82596015930175 L -29.784421920776367 28.829502105712884 L -29.795839309692383 28.833883285522454 L -29.814300537109375 28.840965270996087 L -29.82245445251465 28.844097137451165 L -29.862560272216797 28.859497070312493 L -29.956478118896484 28.895557403564446 L -32.768001556396484 29.97508811950683 L -34.007991790771484 30.45120429992675 L -34.0084228515625 30.45013999938964 L -34.02324295043945 30.413461685180657 L -34.522132873535156 29.177877426147454 L -34.615047454833984 28.947763442993157 L -34.620201110839844 28.934999465942376 L -34.767372131347656 28.564592361450188 L -34.770816802978516 28.55592727661132 L -34.771087646484375 28.55524253845214 L -34.771095275878906 28.55522918701171 L -34.77199935913086 28.555576324462884 L -36.67802047729492 29.28702545166015 L -36.67802429199219 29.287021636962884 L -36.678077697753906 29.286880493164055 L -37.43194580078125 27.39051437377929 L -37.43267059326172 27.388692855834954 L -34.77199935913086 26.367208480834954 L -32.768001556396484 25.597835540771477 L -31.97399139404297 25.292999267578118 L -31.413604736328125 25.077856063842766 L -31.348068237304688 25.05269241333007 L -31.323049545288086 25.04308891296386 L -31.3122615814209 25.03894424438476 L -31.307594299316406 25.037153244018548 L -31.295095443725586 25.03235244750976 L -31.28260040283203 25.027555465698235 L -31.267160415649414 25.021633148193352 L -31.242189407348633 25.012052536010735 L -31.176876068115234 24.98697662353515 L -30.10573959350586 24.57600021362304 L -29.47243309020996 24.33301162719726 L -28.672000885009766 24.02589797973632 L -25.538000106811523 22.823436737060543 L -25.155569076538086 22.676704406738278 L -24.576000213623047 24.111343383789055 L -24.39099884033203 24.56928634643554 M -41.178627014160156 -10.920592308044432 L -41.17551803588867 -10.912768363952635 L -41.17518615722656 -10.911932945251463 L -41.174869537353516 -10.911131858825682 L -43.674068450927734 -9.951522827148436 L -45.055999755859375 -9.420907020568846 L -45.37181854248047 -9.299643516540526 L -45.343589782714844 -9.310481071472166 L -45.055999755859375 -9.420891761779783 L -43.67403793334961 -9.951454162597654 L -41.17399978637695 -10.911266326904295 L -40.959999084472656 -10.993425369262694 L -39.26797866821289 -11.643025398254393 L -39.26797866821289 -11.643024444580076 L -39.267822265625 -11.64263343811035 L -39.26781463623047 -11.642608642578123 L -38.513328552246094 -9.744691848754881 L -40.959999084472656 -8.805368423461912 L -41.17399978637695 -8.723209381103514 L -42.89204406738281 -8.06361961364746 L -44.53239440917969 -7.433856487274168 L -44.597930908203125 -7.408692359924315 L -44.59926223754883 -7.408180713653563 L -44.62208557128906 -7.39941358566284 L -44.62295150756836 -7.399080753326414 L -44.62425231933594 -7.398581981658934 L -44.638404846191406 -7.393152713775633 L -44.65090560913086 -7.388351917266844 L -44.66339874267578 -7.383555889129637 L -44.67884063720703 -7.377634048461912 L -44.6945686340332 -7.371592998504637 L -44.70381164550781 -7.368042469024656 L -44.75978088378906 -7.346563339233397 L -44.76912307739258 -7.342977046966551 L -44.774131774902344 -7.341053962707518 L -45.055999755859375 -7.232842922210692 L -49.152000427246094 -5.660353660583495 L -50.789451599121094 -5.031722545623778 L -51.32200622558594 -6.350699424743651 L -51.5546875 -6.926986694335936 L -50.40800094604492 -7.367023468017576 L -49.675804138183594 -7.647999763488768 L -49.152000427246094 -7.849008083343504 L -48.258201599121094 -8.19200038909912 L -45.44219207763672 -9.272630691528319 L -45.454925537109375 -9.267745971679686 L -45.611244201660156 -9.20777893066406 L -48.25909423828125 -8.19200038909912 L -49.152000427246094 -7.849460124969481 L -49.648529052734375 -7.658978939056395 L -49.70158386230469 -7.7903003692626935 L -49.70592498779297 -7.801050186157225 L -50.40395736694336 -9.55701160430908 L -50.403961181640625 -9.557016372680662 L -50.403114318847656 -9.557341575622557 L -49.152000427246094 -10.037593841552733 L -48.62471008300781 -10.239999771118162 L -46.25846862792969 -11.148305892944334 L -46.21674346923828 -11.164320945739744 L -46.20997619628906 -11.166918754577635 L -46.208431243896484 -11.167512893676756 L -46.20492172241211 -11.168861389160154 L -46.19147872924805 -11.17402648925781 L -46.180057525634766 -11.178412437438963 L -46.17223358154297 -11.181413650512694 L -46.17081069946289 -11.181959152221678 L -46.16157913208008 -11.185502052307127 L -46.15016174316406 -11.189882278442381 L -46.13169860839844 -11.196966171264647 L -46.1235466003418 -11.200096130371092 L -46.083438873291016 -11.21549606323242 L -45.055999755859375 -11.609755516052244 L -44.45627975463867 -11.83988571166992 L -41.93800735473633 -12.806224822998043 L -41.93791961669922 -12.806008338928219 L -41.93791198730469 -12.805988311767575 L -41.93788146972656 -12.805913925170895 L -41.325801849365234 -11.29080009460449 L -41.178627014160156 -10.920592308044432 M -94.26737213134766 9.95936870574951 L -93.13800048828125 9.525782585144041 L -92.43529510498047 9.25599956512451 L -92.40574645996094 9.244655609130858 L -92.3604965209961 9.227284431457518 L -92.44499969482422 9.014713287353514 L -93.11509704589844 7.328229427337645 L -90.11199951171875 6.175849437713621 L -90.02899932861328 6.14400005340576 L -89.46800231933594 5.92872667312622 L -89.4444808959961 5.919701576232909 L -89.28527069091797 5.8585543632507315 L -89.14664459228516 5.805314540863036 L -89.032958984375 5.761711597442626 L -88.96276092529297 5.734758377075194 L -88.90982055664062 5.714428424835204 L -88.90599060058594 5.712958335876464 L -88.90235137939453 5.711561679840087 L -88.90020751953125 5.710742473602294 L -88.86634826660156 5.697759151458739 L -88.84918212890625 5.691178321838378 L -88.77904510498047 5.664251804351806 L -88.66564178466797 5.620675086975097 L -88.55592346191406 5.578595638275146 L -88.36911010742188 5.50694179534912 L -86.9202651977539 4.950655460357665 L -86.01599884033203 4.603462696075439 L -84.69611358642578 4.096691131591796 L -84.69609832763672 4.096684455871581 L -84.6955795288086 4.097966670989989 L -84.597900390625 4.3398094177246085 L -84.23222351074219 5.244999885559081 L -83.93111419677734 5.990355968475341 L -83.93087768554688 5.990939140319823 L -86.01599884033203 6.791522979736326 L -86.69466400146484 7.052096843719481 L -86.86540985107422 7.117653846740721 L -87.47709655761719 7.352511882781981 L -87.01234436035156 7.174165248870848 L -86.78218078613281 7.085840702056883 L -86.01599884033203 6.7918238639831525 L -83.90499877929688 5.981737136840819 L -82.0238265991211 5.259846687316894 L -82.0238037109375 5.25983715057373 L -82.0233383178711 5.26099395751953 L -81.9691390991211 5.395214080810546 L -81.91999816894531 5.516859531402587 L -81.258544921875 7.154173851013182 L -81.91999816894531 7.408110618591307 L -83.90499877929688 8.170168876647947 L -86.01599884033203 8.980599403381346 L -86.73336029052734 9.25599956512451 L -87.05460357666016 9.379326820373533 L -87.23770141601562 9.449619293212889 L -87.30773162841797 9.476494789123533 L -87.32388305664062 9.482691764831541 L -87.35102844238281 9.493105888366697 L -87.37468719482422 9.502199172973631 L -87.38607025146484 9.506573677062987 L -87.42112731933594 9.520018577575682 L -87.43550872802734 9.525543212890623 L -87.46446228027344 9.536661148071287 L -87.52215576171875 9.55879211425781 L -87.53465270996094 9.563585281372069 L -87.71846771240234 9.634126663208006 L -89.46800231933594 10.305521011352537 L -90.11199951171875 10.552659988403319 L -93.13800048828125 11.713907241821287 L -93.51270294189453 11.857701301574705 L -94.26736450195312 9.959381103515623 L -94.26737213134766 9.95936870574951 M -66.12431335449219 44.021987915039055 L -67.27200317382812 44.462593078613274 L -68.0050048828125 44.743999481201165 L -69.63200378417969 45.3686180114746 L -72.25272369384766 46.374736785888665 L -72.25814819335938 46.376819610595696 L -72.25780487060547 46.3766860961914 L -72.25670623779297 46.376262664794915 L -72.2558364868164 46.375930786132805 L -72.25272369384766 46.374736785888665 L -72.23312377929688 46.36721420288085 L -69.63200378417969 45.36874389648437 L -68.03047180175781 44.753982543945305 L -67.97315216064453 44.896125793457024 L -67.27601623535156 46.65299224853515 L -69.63200378417969 47.55701828002929 L -71.39363098144531 48.2329864501953 L -71.4205322265625 48.243305206298814 L -71.43187713623047 48.24766540527342 L -71.46902465820312 48.261928558349595 L -71.48751831054688 48.26902770996092 L -71.49895477294922 48.273410797119126 L -71.49947357177734 48.273612976074205 L -71.50818634033203 48.27695846557616 L -71.51742553710938 48.28050231933592 L -71.5232925415039 48.28275299072264 L -71.52883911132812 48.28488159179686 L -71.54461669921875 48.29094314575194 L -71.54730224609375 48.29197692871092 L -71.54840850830078 48.29240036010741 L -71.5955581665039 48.31049728393553 L -73.72799682617188 49.12928009033202 L -75.74099731445312 49.90220260620116 L -75.7413330078125 49.90137100219725 L -75.7414321899414 49.90111923217772 L -76.20445251464844 48.75500106811522 L -76.35320281982422 48.386798858642564 L -76.5041275024414 48.00714874267577 L -76.5041275024414 48.007133483886705 L -76.50413513183594 48.00712966918944 L -73.72799682617188 46.94118881225585 L -72.2967529296875 46.39163589477538 L -72.28595733642578 46.387493133544915 L -72.28359985351562 46.38658905029296 L -72.2818832397461 46.38592910766601 L -72.27978515625 46.38512420654296 L -72.28359985351562 46.38658905029296 L -72.28641510009766 46.38766860961913 L -72.39425659179688 46.42906951904296 L -73.72799682617188 46.94112014770507 L -76.50499725341797 48.007263183593736 L -78.41101837158203 48.73902130126952 L -78.41104888916016 48.73894119262694 L -78.41130065917969 48.73832702636717 L -78.4113540649414 48.738178253173814 L -79.14967346191406 46.87994384765624 L -79.16454315185547 46.84252929687499 L -79.16566467285156 46.83970642089843 L -79.1656723022461 46.83969116210937 L -76.50499725341797 45.81864166259765 L -74.63286590576172 45.1001968383789 L -73.72799682617188 44.75294876098632 L -73.70467376708984 44.743999481201165 L -73.1466064453125 44.529834747314446 L -73.08106994628906 44.504680633544915 L -73.05604553222656 44.49507904052734 L -73.04756927490234 44.49182510375976 L -73.04731750488281 44.49172592163085 L -73.04059600830078 44.48914718627929 L -73.0280990600586 44.4843521118164 L -73.0156021118164 44.47954940795898 L -73.00016021728516 44.47362518310546 L -72.97518920898438 44.46404266357421 L -72.90987396240234 44.43897628784179 L -72.89939880371094 44.43495559692382 L -69.63200378417969 43.18057250976562 L -67.27200317382812 42.27454757690429 L -66.8895492553711 42.12772369384765 L -66.125 44.02028656005859 L -66.12431335449219 44.021987915039055 M -88.14602661132812 7.60927104949951 L -88.11674499511719 7.5980324745178205 L -88.1181869506836 7.598586082458494 L -88.14136505126953 7.607470989227293 L -88.14603424072266 7.6092629432678205 L -88.19194030761719 7.626890659332274 L -88.19397735595703 7.627673149108885 L -88.23395538330078 7.64302349090576 L -88.22782135009766 7.6406702995300275 L -88.22367858886719 7.639081478118895 L -88.2060546875 7.632320880889891 L -88.19194793701172 7.6269092559814435 L -88.16727447509766 7.617434024810789 L -88.14602661132812 7.60927104949951 M -88.55116271972656 7.764806747436522 L -88.58146667480469 7.776437759399412 L -88.6397705078125 7.798826694488524 L -88.58148956298828 7.776450157165526 L -88.54984283447266 7.764299869537352 L -88.55116271972656 7.764806747436522 M -30.519723892211914 26.923736572265618 L -30.52094268798828 26.924203872680657 L -30.52328109741211 26.92510223388671 L -30.5228328704834 26.92493057250976 L -30.51972007751465 26.923736572265618 L -30.511491775512695 26.920576095581048 L -30.500123977661133 26.916213989257805 L -30.47127342224121 26.905139923095696 L -30.516721725463867 26.9225845336914 L -30.517379760742188 26.92283630371093 L -30.519723892211914 26.923736572265618 M -30.538789749145508 26.931053161621087 L -30.537683486938477 26.930629730224602 L -30.537445068359375 26.930538177490227 L -30.537019729614258 26.930374145507805 L -30.536773681640625 26.930280685424798 L -30.53514289855957 26.929655075073235 L -30.533512115478516 26.929029464721673 L -30.531497955322266 26.928256988525384 L -30.531314849853516 26.928184509277337 L -30.53038215637207 26.927827835083 L -30.5314998626709 26.92825508117675 L -30.533309936523438 26.928951263427727 L -30.53351402282715 26.929029464721673 L -30.53514289855957 26.929655075073235 L -30.53563117980957 26.92984199523925 L -30.536365509033203 26.930122375488274 L -30.536773681640625 26.930280685424798 L -30.538156509399414 26.93081092834472 L -30.538789749145508 26.93105506896972 L -30.538997650146484 26.931133270263665 L -30.539297103881836 26.931249618530266 L -30.538789749145508 26.931053161621087 M 56.879112243652344 -7.1143946647644025 L 56.87922286987305 -7.114436626434324 L 56.88041687011719 -7.114890575408934 L 56.88054656982422 -7.114940166473387 L 56.88352584838867 -7.116075992584227 L 56.88225173950195 -7.115590095520018 L 56.881858825683594 -7.115441322326658 L 56.88079071044922 -7.115033626556395 L 56.88054656982422 -7.114941120147703 L 56.87799835205078 -7.113970279693602 L 56.878475189208984 -7.114151477813719 L 56.879005432128906 -7.114352703094481 L 56.879112243652344 -7.1143946647644025 M 56.883785247802734 -7.116174697875975 L 56.88352584838867 -7.116075992584227 L 56.8837890625 -7.116175651550291 L 56.883785247802734 -7.116174697875975 M 74.14119720458984 -58.80401229858397 L 74.13739013671875 -58.80256271362303 L 75.6844711303711 -59.39199829101561 L 76.55045318603516 -59.72193908691405 L 76.55046844482422 -59.72194671630858 L 76.55778503417969 -59.724975585937486 L 75.6840591430664 -59.39199829101561 L 74.14119720458984 -58.80401229858397 M 74.11091613769531 -58.792472839355455 L 74.11019897460938 -58.79219818115233 L 74.11102294921875 -58.79251098632811 L 74.11245727539062 -58.79306030273436 L 74.11590576171875 -58.794372558593736 L 74.1145248413086 -58.793849945068345 L 74.11438751220703 -58.793796539306626 L 74.11245727539062 -58.79306030273436 L 74.11091613769531 -58.792472839355455 M -2.2525217533111572 17.378988265991207 L -2.2506864070892334 17.378290176391598 L -2.2512950897216797 17.37852096557617 L -2.2515223026275635 17.378606796264645 L -2.2552618980407715 17.380031585693356 L -2.2578160762786865 17.38100433349609 L -2.2580747604370117 17.381103515624996 L -2.2611136436462402 17.382261276245114 L -2.2611279487609863 17.382266998291012 L -2.2585091590881348 17.38126945495605 L -2.255263328552246 17.38003349304199 L -2.253056526184082 17.37919235229492 L -2.2525217533111572 17.378988265991207 M -2.241856336593628 17.374925613403317 L -2.2426323890686035 17.375221252441403 L -2.2426462173461914 17.3752269744873 L -2.244474411010742 17.375923156738278 L -2.2458670139312744 17.3764533996582 L -2.2455217838287354 17.376321792602536 L -2.244649887084961 17.375989913940426 L -2.2444729804992676 17.375923156738278 L -2.2426323890686035 17.375221252441403 L -2.2420008182525635 17.37498092651367 L -2.241856336593628 17.374925613403317 M -18.25868034362793 -21.34286499023437 L -18.226821899414062 -21.35500907897949 L -18.19367218017578 -21.36763763427734 L -18.211244583129883 -21.360946655273434 L -18.226797103881836 -21.355026245117184 L -18.310773849487305 -21.32304000854492 L -18.43427276611328 -21.275987625122067 L -18.41311264038086 -21.284044265747067 L -18.33193016052246 -21.31495094299316 L -18.328994750976562 -21.31606864929199 L -18.31076431274414 -21.323009490966793 L -18.304351806640625 -21.325452804565426 L -18.2817440032959 -21.334072113037106 L -18.25868034362793 -21.34286499023437 M -18.03931427001953 -21.426439285278317 L -17.986303329467773 -21.446628570556637 L -18.024030685424805 -21.432262420654293 L -18.036062240600586 -21.427680969238278 L -18.039287567138672 -21.42645454406738 L -18.0452823638916 -21.424167633056637 L -18.056743621826172 -21.419797897338864 L -18.03931427001953 -21.426439285278317 M 14.971840858459473 -34.29725265502929 L 14.97104549407959 -34.29694747924804 L 14.971189498901367 -34.297004699707024 L 14.97177505493164 -34.29722595214843 L 14.971841812133789 -34.29725265502929 L 14.97232437133789 -34.29743576049804 L 14.973670959472656 -34.2979507446289 L 14.971840858459473 -34.29725265502929 M -72.26431274414062 46.37918472290038 L -72.26449584960938 46.37925720214843 L -72.26338195800781 46.378826141357415 L -72.26431274414062 46.37918472290038 M -45.40721130371094 -9.286054611206053 L -45.40394592285156 -9.28730773925781 L -45.40315246582031 -9.28761291503906 L -45.40394973754883 -9.28730773925781 L -45.40721130371094 -9.28605556488037 L -45.408992767333984 -9.285371780395506 L -45.40922546386719 -9.285281181335447 L -45.40999221801758 -9.284986495971678 L -45.41039276123047 -9.284832954406737 L -45.41071319580078 -9.284710884094237 L -45.40953826904297 -9.28516101837158 L -45.40922546386719 -9.285281181335447 L -45.40861892700195 -9.285514831542967 L -45.40721130371094 -9.286054611206053 M -30.550600051879883 26.935586929321282 L -30.610145568847656 26.95843887329101 L -30.564434051513672 26.940896987915032 L -30.550601959228516 26.935588836669915 L -30.545408248901367 26.933593749999993 L -30.544191360473633 26.933126449584954 L -30.550600051879883 26.935586929321282 M 14.976655006408691 -34.299087524414055 L 14.977070808410645 -34.29924774169921 L 14.977232933044434 -34.29930877685546 L 14.976654052734375 -34.299087524414055 L 14.975434303283691 -34.29862213134765 L 14.976655006408691 -34.299087524414055 M -72.27162170410156 46.38198852539062 L -72.27178955078125 46.38205337524413 L -72.27149200439453 46.381938934326165 L -72.27162170410156 46.38198852539062 M -72.27194213867188 46.38211441040038 L -72.27190399169922 46.38209915161132 L -72.27178955078125 46.38205337524413 L -72.27194213867188 46.38211441040038 M -88.04338836669922 7.569894313812254 L -88.01506042480469 7.559013366699217 L -88.01356506347656 7.558438777923582 L -88.04338836669922 7.569878101348875 L -88.04782104492188 7.571581840515135 L -88.08131408691406 7.584440708160399 L -88.06194305419922 7.5770106315612775 L -88.04338836669922 7.569894313812254 M -45.41290283203125 -9.283869743347166 L -45.4124870300293 -9.284029006958006 L -45.41196060180664 -9.284231185913084 L -45.41120910644531 -9.284521102905272 L -45.4124870300293 -9.284029006958006 L -45.41315460205078 -9.28377342224121 L -45.41290283203125 -9.283869743347166 M 44.84470748901367 -47.349441528320305 L 44.84470748901367 -47.349441528320305 z" fill="none" stroke="rgb(255,0,0)" stroke-width="0.001mm" />
</svg>