<?xml version="1.0" standalone="no"?>
<!DOCTYPE svg PUBLIC "-//W3C//DTD SVG 1.1//EN"
  "http://www.w3.org/Graphics/SVG/1.1/DTD/svg11.dtd">
<svg width="23.947547912597656mm" height="8.223163843154905mm" viewBox="-42.947547912597656 -3.1115820407867427 23.947547912597656 8.223163843154905" xmlns="http://www.w3.org/2000/svg" version="1.1">
	<title>svgOutput</title>
	<desc>made with tinkercad</desc>
<path d="M -40 -2.1115820407867427 L -20 -2.1115820407867427 L -20 4.111581802368163 L -40 4.111581802368163 L -40 4.09600019454956 L -40 3.9821112155914298 L -40 3.976278543472289 L -40 3.975250244140624 L -40 3.9746339321136466 L -40 3.9737093448638907 L -40 3.9718918800353995 L -40.05133819580078 3.940080165863036 L -40.073787689208984 3.9261696338653556 L -40.08599853515625 3.918440341949462 L -40.31999969482422 3.7655410766601554 L -40.340999603271484 3.751779079437255 L -40.65497970581055 3.5450680255889884 L -40.65528869628906 3.544472932815551 L -40.76100158691406 3.3404312133789054 L -40.84237289428711 3.1813080310821524 L -40.959999084472656 2.951290369033813 L -41.267887115478516 2.349221229553222 L -41.34000015258789 2.2082066535949703 L -41.42055892944336 2.04800009727478 L -41.947547912597656 0.9999999999999999 L -41.94737243652344 0.9996501207351683 L -41.56545639038086 0.2388496100902558 L -41.445003509521484 1.1102230246251565e-16 L -41.34000015258789 -0.20820668339729292 L -41.13407897949219 -0.6108786463737486 L -40.959999084472656 -0.9512890577316281 L -40.76100158691406 -1.3404310941696163 L -40.736183166503906 -1.3880273103713985 L -40.65497970581055 -1.5450679063796993 L -40.65393829345703 -1.5457551479339595 L -40.3708610534668 -1.7322289943695064 L -40.340999603271484 -1.7517789602279659 L -40.119659423828125 -1.8963769674301143 L -40.08599853515625 -1.9184403419494624 L -40.08384704589844 -1.9197732210159297 L -40.01344680786133 -1.9633775949478145 L -40 -1.9718918800354 L -40 -1.9745500087738033 L -40 -1.9748095273971553 L -40 -1.975028276443481 L -40 -1.9765309095382686 L -40 -1.9818296432495113 L -40 -1.9821475744247432 L -40 -2.1115820407867427 z" fill="none" stroke="rgb(255,0,0)" stroke-width="0.001mm" />
</svg>