<?xml version="1.0" standalone="no"?>
<!DOCTYPE svg PUBLIC "-//W3C//DTD SVG 1.1//EN"
  "http://www.w3.org/Graphics/SVG/1.1/DTD/svg11.dtd">
<svg width="158.4342498779297mm" height="73.99999999999999mm" viewBox="-62.219886779785156 -9.999999999999998 158.4342498779297 73.99999999999999" xmlns="http://www.w3.org/2000/svg" version="1.1">
	<title>svgOutput</title>
	<desc>made with tinkercad</desc>
<path d="M 37.18600082397461 -8.999999999999998 L 37.18600082397461 -8.19200038909912 L 37.18600082397461 -1.7400000095367427 L 36.81399917602539 -1.7400000095367427 L 36.81399917602539 -8.19200038909912 L 36.81399917602539 -8.999999999999998 L 37.18600082397461 -8.999999999999998 M 32.19211959838867 -1.7400000095367427 L 32.19211959838867 -8.999999999999998 L 32.71683883666992 -8.999999999999998 L 32.71683883666992 -1.7400000095367427 L 32.19211959838867 -1.7400000095367427 M 23.187793731689453 -8.999999999999998 L 23.187793731689453 -1.7858386039733882 L 23.187793731689453 -1.7400000095367427 L 23.187793731689453 -1.4999999999999996 L 23.187793731689453 1.1102230246251565e-16 L 23.187793731689453 1.9999999999999996 L 22.785634994506836 1.9999999999999996 L 22.785634994506836 1.1102230246251565e-16 L 22.785634994506836 -1.4999999999999996 L 22.785634994506836 -2.1409931182861324 L 22.785634994506836 -8.999999999999998 L 23.187793731689453 -8.999999999999998 M -15.795647621154785 25.873168945312493 L -15.795647621154785 28.274000167846673 L -15.795647621154785 31.620296478271477 L -16.384000778198242 31.620296478271477 L -24.576000213623047 31.620296478271477 L -30 31.620296478271477 L -32.768001556396484 31.620296478271477 L -40.959999084472656 31.620296478271477 L -49.152000427246094 31.620296478271477 L -50.22508239746094 31.620296478271477 L -51.919647216796875 31.620296478271477 L -51.919647216796875 32.76800155639648 L -51.919647216796875 35.443000793457024 L -51.919647216796875 38.38183212280273 L -57.34400177001953 38.38183212280273 L -61.219886779785156 38.38183212280273 L -61.219886779785156 35.443000793457024 L -61.219886779785156 32.76800155639648 L -61.219886779785156 28.274000167846673 L -61.219886779785156 24.57600021362304 L -61.219886779785156 19.11170387268066 L -57.34400177001953 19.11170387268066 L -51.919647216796875 19.11170387268066 L -51.919647216796875 24.57600021362304 L -51.919647216796875 25.873168945312493 L -50.22508239746094 25.873168945312493 L -49.152000427246094 25.873168945312493 L -40.959999084472656 25.873168945312493 L -32.768001556396484 25.873168945312493 L -30 25.873168945312493 L -24.576000213623047 25.873168945312493 L -16.384000778198242 25.873168945312493 L -15.795647621154785 25.873168945312493 M 34.643043518066406 18.799737930297848 L 34.64362335205078 18.796590805053707 L 34.64698028564453 18.778432846069332 L 34.69505310058594 18.5164680480957 L 34.71055221557617 18.431999206542965 L 34.71302795410156 18.418518066406246 L 34.714115142822266 18.415016174316403 L 34.719573974609375 18.39747047424316 L 34.816001892089844 18.088235855102536 L 34.83060836791992 18.041385650634762 L 34.83967971801758 18.02072143554687 L 34.992835998535156 17.671337127685543 L 34.99367141723633 17.66988372802734 L 35.00442886352539 17.651187896728512 L 35.20065689086914 17.310417175292965 L 35.21464538574219 17.29090881347656 L 35.451080322265625 16.96162605285644 L 35.467464447021484 16.94288825988769 L 35.744102478027344 16.626049041748043 L 35.746681213378906 16.623575210571286 L 35.76271057128906 16.608207702636715 L 35.996883392333984 16.38400077819824 L 36.07763671875 16.30668449401855 L 36.09834289550781 16.289829254150387 L 36.44868469238281 16.004577636718746 L 36.44915008544922 16.0042552947998 L 36.47140121459961 15.988791465759274 L 36.855247497558594 15.722684860229489 L 36.86399841308594 15.717508316040036 L 36.879844665527344 15.70813941955566 L 37.2952766418457 15.461176872253414 L 37.310638427734375 15.453408241271969 L 37.32158660888672 15.447871208190914 L 37.76573944091797 15.223882675170895 L 37.79354476928711 15.211946487426754 L 38.01900100708008 15.11525726318359 L 38.264495849609375 15.009973526000973 L 38.29371643066406 14.999491691589352 L 38.78764343261719 14.822406768798825 L 38.818058013916016 14.813422203063961 L 38.9119987487793 14.785607337951657 L 39.33208465576172 14.661224365234371 L 39.363487243652344 14.65378093719482 L 39.8937873840332 14.528385162353512 L 39.92599868774414 14.522566795349118 L 40.47065734863281 14.42397308349609 L 40.474853515625 14.423438072204586 L 40.50351333618164 14.419780731201168 L 40.959999084472656 14.361538887023922 L 41.05870056152344 14.348946571350094 L 41.091941833496094 14.346422195434567 L 41.65382766723633 14.303347587585446 L 41.661949157714844 14.303139686584469 L 41.68728256225586 14.30249214172363 L 42.25299835205078 14.288133621215817 L 44.54100036621094 14.288133621215817 L 47.01100158691406 14.288133621215817 L 48.65800094604492 14.288133621215817 L 49.152000427246094 14.288133621215817 L 57.7140007019043 14.288133621215817 L 65.53600311279297 14.288133621215817 L 69.63200378417969 14.288133621215817 L 69.74700164794922 14.288133621215817 L 69.78045654296875 14.288989067077633 L 70.3461685180664 14.303347587585446 L 70.34835815429688 14.3035135269165 L 70.37940979003906 14.305871963500973 L 70.77242279052734 14.33600044250488 L 70.94129943847656 14.348946571350094 L 70.97415161132812 14.353138923645016 L 71.52934265136719 14.42397308349609 L 71.52953338623047 14.42400741577148 L 71.56155395507812 14.429791450500485 L 71.68000030517578 14.45123195648193 L 72.10621643066406 14.528385162353512 L 72.13761138916016 14.535828590393063 L 72.66791534423828 14.661224365234371 L 72.67332458496094 14.662823677062985 L 72.69833374023438 14.670208930969235 L 73.21235656738281 14.822406768798825 L 73.2415771484375 14.83288764953613 L 73.72799682617188 15.007283210754391 L 73.73550415039062 15.009973526000973 L 73.7367935180664 15.010527610778805 L 73.76331329345703 15.021908760070797 L 74.23426055908203 15.223882675170895 L 74.23653411865234 15.225031852722164 L 74.26057434082031 15.237187385559078 L 74.70471954345703 15.461176872253414 L 74.71188354492188 15.465412139892575 L 74.72932434082031 15.475722312927243 L 75.1447525024414 15.722684860229489 L 75.16747283935547 15.738471031188961 L 75.55131530761719 16.004577636718746 L 75.55662536621094 16.008901596069332 L 75.572021484375 16.02143287658691 L 75.7760009765625 16.187513351440426 L 75.92236328125 16.30668449401855 L 75.94097137451172 16.324523925781246 L 76.00308990478516 16.38400077819824 L 76.25589752197266 16.626049041748043 L 76.27228546142578 16.644786834716793 L 76.54891967773438 16.96162605285644 L 76.56291198730469 16.981134414672848 L 76.7993392944336 17.310417175292965 L 76.80056762695312 17.31254959106445 L 76.8109359741211 17.330566406249996 L 77.00716400146484 17.671337127685543 L 77.00768280029297 17.67251396179199 L 77.0162353515625 17.6919994354248 L 77.16938781738281 18.041385650634762 L 77.17593383789062 18.062433242797848 L 77.28697204589844 18.418518066406246 L 77.28741455078125 18.420923233032223 L 77.28946685791016 18.431999206542965 L 77.29090881347656 18.439823150634762 L 77.3569564819336 18.799737930297848 L 77.35828399658203 18.821214675903317 L 77.38030242919922 19.184000015258786 L 77.38030242919922 20.479999542236325 L 77.38030242919922 24.57600021362304 L 77.38030242919922 27.42900085449218 L 77.38030242919922 32.76800155639648 L 77.38030242919922 34.49999999999999 L 77.38030242919922 36.81600189208984 L 77.37897491455078 36.83747482299804 L 77.37736511230469 36.86399841308593 L 77.3569564819336 37.20026016235351 L 77.35637664794922 37.203411102294915 L 77.35301971435547 37.221565246582024 L 77.28697204589844 37.58148193359374 L 77.28588104248047 37.58498382568359 L 77.28042602539062 37.602527618408196 L 77.24566650390625 37.71400070190429 L 77.16938781738281 37.95861434936523 L 77.16032409667969 37.97927856445312 L 77.00716400146484 38.328662872314446 L 77.00633239746094 38.33011627197265 L 76.99557495117188 38.34881210327148 L 76.7993392944336 38.689582824707024 L 76.78535461425781 38.70909118652343 L 76.63965606689453 38.91199874877929 L 76.54891967773438 39.03837585449218 L 76.53253173828125 39.05711364746093 L 76.25589752197266 39.373950958251946 L 76.2533187866211 39.37642669677734 L 76.23728942871094 39.391792297363274 L 75.92236328125 39.69331741333007 L 75.90165710449219 39.7101707458496 L 75.7760009765625 39.812480926513665 L 75.55131530761719 39.99542236328124 L 75.52860260009766 40.0112075805664 L 75.1447525024414 40.27731704711913 L 75.12015533447266 40.29186248779296 L 74.70471954345703 40.53882217407226 L 74.68936157226562 40.54659271240234 L 74.67841339111328 40.55212783813476 L 74.23426055908203 40.77611923217773 L 74.20645141601562 40.7880516052246 L 73.8055191040039 40.95999908447265 L 73.73550415039062 40.99002838134765 L 73.72799682617188 40.992717742919915 L 73.70628356933594 41.00050735473632 L 73.21235656738281 41.177593231201165 L 73.18193817138672 41.18657684326171 L 72.66791534423828 41.33877563476562 L 72.66146850585938 41.34030151367187 L 72.63651275634766 41.34621810913085 L 72.10621643066406 41.47161483764648 L 72.0739974975586 41.477432250976555 L 71.68000030517578 41.548755645751946 L 71.52934265136719 41.5760269165039 L 71.4964828491211 41.58021926879882 L 70.94129943847656 41.65105438232421 L 70.9080581665039 41.65357589721679 L 70.3461685180664 41.69665145874023 L 70.33805084228516 41.69686126708984 L 70.31271362304688 41.69750976562499 L 69.74700164794922 41.71186447143554 L 69.63200378417969 41.71186447143554 L 65.53600311279297 41.71186447143554 L 49.152000427246094 41.71186447143554 L 48.65800094604492 41.71186447143554 L 44.54100036621094 41.71186447143554 L 42.25299835205078 41.71186447143554 L 42.219547271728516 41.71100997924804 L 41.65382766723633 41.69665145874023 L 41.651641845703125 41.696487426757805 L 41.62058639526367 41.69412994384765 L 41.05870056152344 41.65105438232421 L 41.02584457397461 41.64686203002929 L 40.959999084472656 41.63845825195312 L 40.47065734863281 41.5760269165039 L 40.4704704284668 41.57599258422851 L 40.43844223022461 41.57020950317382 L 39.8937873840332 41.47161483764648 L 39.86238479614258 41.46417236328124 L 39.33208465576172 41.33877563476562 L 39.3266716003418 41.33717727661132 L 39.30167007446289 41.32979202270507 L 38.9119987487793 41.21441650390624 L 38.78764343261719 41.177593231201165 L 38.7584228515625 41.16711044311523 L 38.264495849609375 40.99002838134765 L 38.263206481933594 40.98947143554687 L 38.236690521240234 40.97809219360351 L 38.19450759887695 40.95999908447265 L 38.01900100708008 40.8847312927246 L 37.76573944091797 40.77611923217773 L 37.763465881347656 40.77496719360351 L 37.73942947387695 40.76281356811523 L 37.450408935546875 40.61705780029296 L 37.2952766418457 40.53882217407226 L 37.288116455078125 40.534587860107415 L 37.27067947387695 40.52427673339843 L 36.86399841308594 40.282520294189446 L 36.855247497558594 40.27731704711913 L 36.8325309753418 40.26152801513671 L 36.44868469238281 39.99542236328124 L 36.44337463378906 39.99110031127929 L 36.427978515625 39.978565216064446 L 36.07763671875 39.69331741333007 L 36.05902862548828 39.67547607421874 L 35.744102478027344 39.373950958251946 L 35.742103576660156 39.37166595458984 L 35.727718353271484 39.355213165283196 L 35.451080322265625 39.03837585449218 L 35.43709182739258 39.018867492675774 L 35.36035919189453 38.91199874877929 L 35.20065689086914 38.689582824707024 L 35.189064025878906 38.66943359374999 L 34.992835998535156 38.328662872314446 L 34.99231719970703 38.32748794555663 L 34.9837646484375 38.307998657226555 L 34.83060836791992 37.95861434936523 L 34.82406234741211 37.937568664550774 L 34.71302795410156 37.58148193359374 L 34.712581634521484 37.5790786743164 L 34.70909118652344 37.56017684936523 L 34.643043518066406 37.20026016235351 L 34.64171600341797 37.178787231445305 L 34.62261199951172 36.86399841308593 L 34.61970138549805 36.81600189208984 L 34.61970138549805 35.785999298095696 L 34.61970138549805 35.443000793457024 L 34.61970138549805 34.49999999999999 L 34.61970138549805 32.76800155639648 L 34.61970138549805 28.274000167846673 L 34.61970138549805 24.57600021362304 L 34.61970138549805 20.479999542236325 L 34.61970138549805 19.184000015258786 L 34.62102508544922 19.162523269653317 L 34.643043518066406 18.799737930297848 M 23.187793731689453 49.999999999999986 L 23.187793731689453 53.21487426757811 L 23.187793731689453 57.25999832153319 L 23.187793731689453 57.499999999999986 L 23.187793731689453 60.999999999999986 L 22.785634994506836 60.999999999999986 L 22.785634994506836 57.499999999999986 L 22.785634994506836 53.570087432861314 L 22.785634994506836 49.999999999999986 L 23.187793731689453 49.999999999999986 M 36.81399917602539 57.25999832153319 L 36.81399917602539 51.31859970092772 L 36.81399917602539 49.999999999999986 L 37.18600082397461 49.999999999999986 L 37.18600082397461 50.99008178710936 L 37.18600082397461 57.25999832153319 L 36.81399917602539 57.25999832153319 M 32.19211959838867 57.25999832153319 L 32.19211959838867 55.40028381347655 L 32.19211959838867 49.999999999999986 L 32.71683883666992 49.999999999999986 L 32.71683883666992 54.93689346313475 L 32.71683883666992 57.25999832153319 L 32.19211959838867 57.25999832153319 M 94.81221008300781 62.999999999999986 L 94.81221008300781 59.25999832153319 L 94.81221008300781 57.499999999999986 L 94.81221008300781 51.999999999999986 L 95.02693176269531 51.999999999999986 L 95.21436309814453 51.999999999999986 L 95.21436309814453 57.499999999999986 L 95.21436309814453 59.25999832153319 L 95.21436309814453 62.999999999999986 L 95.02701568603516 62.999999999999986 L 95.02693176269531 62.999999999999986 L 94.81221008300781 62.999999999999986 M 85.8078842163086 51.999999999999986 L 85.8078842163086 56.74415206909178 L 85.8078842163086 57.499999999999986 L 85.8078842163086 59.25999832153319 L 85.28315734863281 59.25999832153319 L 85.28315734863281 57.499999999999986 L 85.28315734863281 56.28068161010741 L 85.28315734863281 51.999999999999986 L 85.8078842163086 51.999999999999986 M 81.18599700927734 51.999999999999986 L 81.18599700927734 52.66175842285155 L 81.18599700927734 57.34400177001952 L 81.18599700927734 57.499999999999986 L 81.18599700927734 59.25999832153319 L 80.81400299072266 59.25999832153319 L 80.81400299072266 57.499999999999986 L 80.81400299072266 57.34400177001952 L 80.81400299072266 52.33317947387694 L 80.81400299072266 51.999999999999986 L 81.18599700927734 51.999999999999986 M 66.78563690185547 62.999999999999986 L 66.78563690185547 59.78599929809569 L 66.78563690185547 57.499999999999986 L 66.78563690185547 57.34400177001952 L 66.78563690185547 53.999999999999986 L 66.78563690185547 51.999999999999986 L 67.18778991699219 51.999999999999986 L 67.18778991699219 53.999999999999986 L 67.18778991699219 57.34400177001952 L 67.18778991699219 57.499999999999986 L 67.18778991699219 59.78599929809569 L 67.18778991699219 62.999999999999986 L 66.78563690185547 62.999999999999986 M 76.1921157836914 59.25999832153319 L 76.1921157836914 58.388977050781236 L 76.1921157836914 57.499999999999986 L 76.1921157836914 57.34400177001952 L 76.1921157836914 51.999999999999986 L 76.71684265136719 51.999999999999986 L 76.71684265136719 57.34400177001952 L 76.71684265136719 57.499999999999986 L 76.71684265136719 58.85236740112303 L 76.71684265136719 59.25999832153319 L 76.1921157836914 59.25999832153319 M 41.80788040161133 49.999999999999986 L 41.80788040161133 57.25999832153319 L 41.28316116333008 57.25999832153319 L 41.28316116333008 49.999999999999986 L 41.80788040161133 49.999999999999986 M 50.81220626831055 60.999999999999986 L 50.81220626831055 59.999999999999986 L 50.81220626831055 59.78599929809569 L 50.81220626831055 57.499999999999986 L 50.81220626831055 57.25999832153319 L 50.81220626831055 56.70795440673827 L 50.81220626831055 55.24732971191405 L 50.81220626831055 53.999999999999986 L 50.81220626831055 53.900783538818345 L 50.81220626831055 52.62317657470702 L 50.81220626831055 51.433048248291 L 50.81220626831055 50.311374664306626 L 50.81220626831055 49.999999999999986 L 51.02693176269531 49.999999999999986 L 51.2143669128418 49.999999999999986 L 51.2143669128418 50.311374664306626 L 51.2143669128418 51.433048248291 L 51.2143669128418 52.62317657470702 L 51.2143669128418 53.900783538818345 L 51.2143669128418 53.999999999999986 L 51.2143669128418 55.24732971191405 L 51.2143669128418 56.70795440673827 L 51.2143669128418 57.25999832153319 L 51.2143669128418 57.499999999999986 L 51.2143669128418 59.78599929809569 L 51.2143669128418 59.999999999999986 L 51.2143669128418 60.999999999999986 L 51.027015686035156 60.999999999999986 L 51.02693176269531 60.999999999999986 L 50.81220626831055 60.999999999999986 M 41.80788040161133 -8.999999999999998 L 41.80788040161133 -1.7400000095367427 L 41.28316116333008 -1.7400000095367427 L 41.28316116333008 -8.999999999999998 L 41.80788040161133 -8.999999999999998 M 51.2143669128418 -8.999999999999998 L 51.2143669128418 -1.7400000095367427 L 51.2143669128418 -1.4999999999999996 L 51.2143669128418 -0.7079535126686094 L 51.2143669128418 1.1102230246251565e-16 L 51.2143669128418 1.9999999999999996 L 51.027015686035156 1.9999999999999996 L 51.02693176269531 1.9999999999999996 L 50.81220626831055 1.9999999999999996 L 50.81220626831055 1.1102230246251565e-16 L 50.81220626831055 -0.7079535126686094 L 50.81220626831055 -1.4999999999999996 L 50.81220626831055 -1.7400000095367427 L 50.81220626831055 -8.999999999999998 L 51.02693176269531 -8.999999999999998 L 51.2143669128418 -8.999999999999998 M 77.18599700927734 -8.999999999999998 L 77.18599700927734 -8.19200038909912 L 77.18599700927734 -1.7400000095367427 L 76.81400299072266 -1.7400000095367427 L 76.81400299072266 -8.19200038909912 L 76.81400299072266 -8.999999999999998 L 77.18599700927734 -8.999999999999998 M 72.1921157836914 -1.7400000095367427 L 72.1921157836914 -8.999999999999998 L 72.71684265136719 -8.999999999999998 L 72.71684265136719 -1.7400000095367427 L 72.1921157836914 -1.7400000095367427 M 63.18779373168945 -8.999999999999998 L 63.18779373168945 -1.4999999999999996 L 63.18779373168945 -0.7079535126686094 L 63.18779373168945 1.1102230246251565e-16 L 63.18779373168945 1.9999999999999996 L 62.7856330871582 1.9999999999999996 L 62.7856330871582 1.1102230246251565e-16 L 62.7856330871582 -0.7079535126686094 L 62.7856330871582 -1.4999999999999996 L 62.7856330871582 -8.999999999999998 L 63.18779373168945 -8.999999999999998 M 91.21436309814453 -8.999999999999998 L 91.21436309814453 -1.7400000095367427 L 91.21436309814453 -1.4999999999999996 L 91.21436309814453 1.1102230246251565e-16 L 91.21436309814453 1.9999999999999996 L 91.02701568603516 1.9999999999999996 L 91.02693176269531 1.9999999999999996 L 90.81221008300781 1.9999999999999996 L 90.81221008300781 1.1102230246251565e-16 L 90.81221008300781 -1.4999999999999996 L 90.81221008300781 -1.7400000095367427 L 90.81221008300781 -8.999999999999998 L 91.02693176269531 -8.999999999999998 L 91.21436309814453 -8.999999999999998 M 81.8078842163086 -8.999999999999998 L 81.8078842163086 -8.19200038909912 L 81.8078842163086 -1.7400000095367427 L 81.28315734863281 -1.7400000095367427 L 81.28315734863281 -8.19200038909912 L 81.28315734863281 -8.999999999999998 L 81.8078842163086 -8.999999999999998 z" fill="none" stroke="rgb(255,0,0)" stroke-width="0.001mm" />
</svg>