<?xml version="1.0" standalone="no"?>
<!DOCTYPE svg PUBLIC "-//W3C//DTD SVG 1.1//EN"
  "http://www.w3.org/Graphics/SVG/1.1/DTD/svg11.dtd">
<svg width="351mm" height="470.9999999999999mm" viewBox="-205 -243.99999999999994 351 470.9999999999999" xmlns="http://www.w3.org/2000/svg" version="1.1">
	<title>svgOutput</title>
	<desc>made with tinkercad</desc>
<path d="M 136 -242.99999999999994 L 136 -131.0720062255859 L 136 -61.999999999999986 L 145 -61.999999999999986 L 145 1.1102230246251565e-16 L 145 131.0720062255859 L 145 187.99999999999997 L 136 187.99999999999997 L 136 221.99999999999994 L 131.07200622558594 221.99999999999994 L 65.53600311279297 221.99999999999994 L 0 221.99999999999994 L -65.53600311279297 221.99999999999994 L -81.91999816894531 221.99999999999994 L -98.30400085449219 221.99999999999994 L -106.49600219726562 221.99999999999994 L -107 221.99999999999994 L -107 222.20799255371088 L -107 223.2319946289062 L -107 225.27999877929682 L -107 225.99999999999994 L -110.59200286865234 225.99999999999994 L -113 225.99999999999994 L -113 221.99999999999994 L -114.68800354003906 221.99999999999994 L -131.07200622558594 221.99999999999994 L -204 221.99999999999994 L -204 131.0720062255859 L -204 1.1102230246251565e-16 L -204 -131.0720062255859 L -204 -242.99999999999994 L 0 -242.99999999999994 L 136 -242.99999999999994 z" fill="none" stroke="rgb(255,0,0)" stroke-width="0.001mm" />
</svg>